<svg width="66" height="64" viewBox="0 0 66 64" fill="none" xmlns="http://www.w3.org/2000/svg">
<circle cx="32.9995" cy="20" r="19.5" stroke="#0071BC"/>
<path d="M40.0549 21H34.0314V27H32.0235V21H26V19H32.0235V13H34.0314V19H40.0549V21Z" fill="#0071BC"/>
<path d="M0 60L3.73926 49.9648H5.5166L9.25586 60H7.51953L6.52148 57.2246H2.7002L1.72266 60H0ZM3.17871 55.8164H6.09082L5.1543 53.0957C5.08594 52.9134 4.99023 52.6263 4.86719 52.2344C4.7487 51.8424 4.66667 51.5553 4.62109 51.373C4.49805 51.9336 4.31803 52.5465 4.08105 53.2119L3.17871 55.8164ZM9.95312 56.2334C9.95312 54.9938 10.2197 54.0299 10.7529 53.3418C11.2907 52.6491 12.0335 52.3027 12.9814 52.3027C13.9749 52.3027 14.7314 52.6696 15.251 53.4033H15.333C15.2555 52.861 15.2168 52.4326 15.2168 52.1182V49.3633H16.8301V60H15.5723L15.292 59.0088H15.2168C14.7018 59.7607 13.9476 60.1367 12.9541 60.1367C12.0107 60.1367 11.2747 59.7949 10.7461 59.1113C10.2174 58.4277 9.95312 57.4684 9.95312 56.2334ZM11.6074 56.2607C11.6074 57.0993 11.7555 57.7396 12.0518 58.1816C12.348 58.6191 12.7923 58.8379 13.3848 58.8379C14.0456 58.8379 14.5264 58.6533 14.8271 58.2842C15.1279 57.9105 15.2829 57.3066 15.292 56.4727V56.2471C15.292 55.2946 15.137 54.6178 14.8271 54.2168C14.5173 53.8158 14.0319 53.6152 13.3711 53.6152C12.806 53.6152 12.3708 53.8454 12.0654 54.3057C11.7601 54.7614 11.6074 55.4131 11.6074 56.2607ZM18.6758 56.2334C18.6758 54.9938 18.9424 54.0299 19.4756 53.3418C20.0133 52.6491 20.7562 52.3027 21.7041 52.3027C22.6976 52.3027 23.4541 52.6696 23.9736 53.4033H24.0557C23.9782 52.861 23.9395 52.4326 23.9395 52.1182V49.3633H25.5527V60H24.2949L24.0146 59.0088H23.9395C23.4245 59.7607 22.6702 60.1367 21.6768 60.1367C20.7334 60.1367 19.9974 59.7949 19.4688 59.1113C18.9401 58.4277 18.6758 57.4684 18.6758 56.2334ZM20.3301 56.2607C20.3301 57.0993 20.4782 57.7396 20.7744 58.1816C21.0706 58.6191 21.515 58.8379 22.1074 58.8379C22.7682 58.8379 23.249 58.6533 23.5498 58.2842C23.8506 57.9105 24.0055 57.3066 24.0146 56.4727V56.2471C24.0146 55.2946 23.8597 54.6178 23.5498 54.2168C23.2399 53.8158 22.7546 53.6152 22.0938 53.6152C21.5286 53.6152 21.0934 53.8454 20.7881 54.3057C20.4827 54.7614 20.3301 55.4131 20.3301 56.2607ZM31.0215 59.6104V58.0654C31.4772 58.2796 31.9603 58.4482 32.4707 58.5713C32.9857 58.6943 33.4642 58.7559 33.9062 58.7559C34.5534 58.7559 35.0296 58.6328 35.335 58.3867C35.6449 58.1406 35.7998 57.8102 35.7998 57.3955C35.7998 57.0218 35.6585 56.7051 35.376 56.4453C35.0934 56.1855 34.5101 55.8779 33.626 55.5225C32.7145 55.1533 32.0719 54.7318 31.6982 54.2578C31.3245 53.7839 31.1377 53.2142 31.1377 52.5488C31.1377 51.7148 31.4339 51.0586 32.0264 50.5801C32.6188 50.1016 33.4141 49.8623 34.4121 49.8623C35.3691 49.8623 36.3216 50.0719 37.2695 50.4912L36.75 51.8242C35.8613 51.4505 35.0684 51.2637 34.3711 51.2637C33.8424 51.2637 33.4414 51.3799 33.168 51.6123C32.8945 51.8402 32.7578 52.1432 32.7578 52.5215C32.7578 52.7812 32.8125 53.0046 32.9219 53.1914C33.0312 53.3737 33.2113 53.5469 33.4619 53.7109C33.7126 53.875 34.1637 54.0915 34.8154 54.3604C35.5492 54.6657 36.0869 54.9505 36.4287 55.2148C36.7705 55.4792 37.0212 55.7777 37.1807 56.1104C37.3402 56.443 37.4199 56.835 37.4199 57.2861C37.4199 58.1748 37.0986 58.8721 36.4561 59.3779C35.8135 59.8838 34.9271 60.1367 33.7969 60.1367C32.6667 60.1367 31.7415 59.9613 31.0215 59.6104ZM38.3018 53.6562V52.9453L39.4092 52.3574L39.9561 50.7578H40.9473V52.4395H43.1006V53.6562H40.9473V57.7031C40.9473 58.0905 41.043 58.3776 41.2344 58.5645C41.4303 58.7467 41.6855 58.8379 42 58.8379C42.3919 58.8379 42.7839 58.7764 43.1758 58.6533V59.8633C42.998 59.9408 42.7679 60.0046 42.4854 60.0547C42.2074 60.1094 41.918 60.1367 41.6172 60.1367C40.0951 60.1367 39.334 59.3346 39.334 57.7305V53.6562H38.3018ZM44.1602 57.833C44.1602 57.0537 44.4495 56.4658 45.0283 56.0693C45.6071 55.6729 46.4889 55.4564 47.6738 55.4199L48.9795 55.3789V54.9756C48.9795 54.4925 48.8656 54.1325 48.6377 53.8955C48.4144 53.654 48.0658 53.5332 47.5918 53.5332C47.2044 53.5332 46.833 53.5902 46.4775 53.7041C46.1221 53.818 45.7803 53.9525 45.4521 54.1074L44.9326 52.959C45.3428 52.7448 45.7917 52.583 46.2793 52.4736C46.7669 52.3597 47.2272 52.3027 47.6602 52.3027C48.6217 52.3027 49.3464 52.5124 49.834 52.9316C50.3262 53.3509 50.5723 54.0094 50.5723 54.9072V60H49.4238L49.1025 58.9473H49.0479C48.6833 59.4076 48.3164 59.722 47.9473 59.8906C47.5781 60.0547 47.1042 60.1367 46.5254 60.1367C45.7826 60.1367 45.2015 59.9362 44.7822 59.5352C44.3675 59.1341 44.1602 58.5667 44.1602 57.833ZM45.8281 57.8467C45.8281 58.1839 45.9284 58.446 46.1289 58.6328C46.3294 58.8151 46.6302 58.9062 47.0312 58.9062C47.6146 58.9062 48.0817 58.7445 48.4326 58.4209C48.7881 58.0928 48.9658 57.6348 48.9658 57.0469V56.3906L47.9951 56.4316C47.2386 56.459 46.6872 56.5866 46.3408 56.8145C45.999 57.0378 45.8281 57.3818 45.8281 57.8467ZM51.9326 53.6562V52.9453L53.04 52.3574L53.5869 50.7578H54.5781V52.4395H56.7314V53.6562H54.5781V57.7031C54.5781 58.0905 54.6738 58.3776 54.8652 58.5645C55.0612 58.7467 55.3164 58.8379 55.6309 58.8379C56.0228 58.8379 56.4147 58.7764 56.8066 58.6533V59.8633C56.6289 59.9408 56.3988 60.0046 56.1162 60.0547C55.8382 60.1094 55.5488 60.1367 55.248 60.1367C53.7259 60.1367 52.9648 59.3346 52.9648 57.7305V53.6562H51.9326ZM57.873 56.2744C57.873 55.0394 58.1807 54.0687 58.7959 53.3623C59.4111 52.6559 60.2565 52.3027 61.332 52.3027C62.3301 52.3027 63.1185 52.6058 63.6973 53.2119C64.276 53.818 64.5654 54.652 64.5654 55.7139V56.582H59.5273C59.5501 57.3158 59.7484 57.8809 60.1221 58.2773C60.4958 58.6693 61.0221 58.8652 61.7012 58.8652C62.1478 58.8652 62.5625 58.8242 62.9453 58.7422C63.3327 58.6556 63.7474 58.5143 64.1895 58.3184V59.624C63.7975 59.8109 63.401 59.943 63 60.0205C62.599 60.098 62.141 60.1367 61.626 60.1367C60.4502 60.1367 59.5296 59.7949 58.8643 59.1113C58.2035 58.4232 57.873 57.4775 57.873 56.2744ZM59.5547 55.4199H62.9863C62.9772 54.7956 62.8268 54.3239 62.5352 54.0049C62.2435 53.6813 61.8424 53.5195 61.332 53.5195C60.8216 53.5195 60.4115 53.6813 60.1016 54.0049C59.7962 54.3285 59.6139 54.8001 59.5547 55.4199Z" fill="#0071BC"/>
</svg>
