<svg width="114" height="40" viewBox="0 0 114 40" fill="none" xmlns="http://www.w3.org/2000/svg">
<path d="M63.0657 7.71357C63.0657 10.1432 62.4658 12.043 61.266 13.4131C60.0662 14.7741 58.4107 15.4545 56.2995 15.4545C54.9696 15.4545 53.7977 15.1394 52.7839 14.5092C51.7702 13.8789 50.9936 12.9747 50.4542 11.7964C49.9147 10.6181 49.645 9.2572 49.645 7.71357C49.645 5.28396 50.2449 3.39324 51.4447 2.04142C52.6444 0.680475 54.2906 0 56.3832 0C58.4666 0 60.0988 0.689609 61.28 2.06883C62.4704 3.43891 63.0657 5.32049 63.0657 7.71357ZM51.0959 7.71357C51.0959 9.75956 51.5516 11.358 52.4631 12.5089C53.3838 13.6506 54.6812 14.2215 56.3553 14.2215C58.0294 14.2215 59.3222 13.6506 60.2336 12.5089C61.1544 11.358 61.6148 9.75956 61.6148 7.71357C61.6148 5.65845 61.1497 4.06458 60.2197 2.93198C59.2989 1.79938 58.0015 1.23308 56.3274 1.23308C54.6533 1.23308 53.3606 1.79938 52.4491 2.93198C51.547 4.05545 51.0959 5.64931 51.0959 7.71357Z" fill="white"/>
<path d="M77.8395 15.1805V5.52144C77.8395 4.02348 77.5186 2.93655 76.8769 2.26064C76.2352 1.5756 75.24 1.23308 73.8914 1.23308C72.0778 1.23308 70.7479 1.6852 69.9015 2.58946C69.0645 3.48458 68.646 4.94144 68.646 6.96003V15.1805H67.2648V0.287718H68.4367L68.7018 2.32914H68.7855C69.7713 0.776381 71.5245 0 74.0449 0C77.4861 0 79.2067 1.81308 79.2067 5.43923V15.1805H77.8395Z" fill="white"/>
<path d="M90.2417 15.4545C88.0375 15.4545 86.3169 14.7878 85.08 13.4542C83.8523 12.1207 83.2385 10.2528 83.2385 7.85058C83.2385 5.47577 83.8337 3.57592 85.0242 2.15103C86.2146 0.71701 87.819 0 89.8372 0C91.6229 0 93.0319 0.611971 94.0642 1.83591C95.0966 3.05985 95.6128 4.72222 95.6128 6.82302V7.91908H84.6893C84.7079 9.96508 85.1916 11.527 86.1402 12.6048C87.0982 13.6826 88.4653 14.2215 90.2417 14.2215C91.1067 14.2215 91.8647 14.1621 92.5157 14.0434C93.176 13.9246 94.0084 13.6689 95.0129 13.2761V14.5092C94.1572 14.8745 93.3667 15.1212 92.6413 15.249C91.9158 15.386 91.116 15.4545 90.2417 15.4545ZM89.8372 1.20567C88.377 1.20567 87.2051 1.68064 86.3216 2.63056C85.438 3.57135 84.9218 4.9323 84.773 6.71341H94.1479C94.1479 4.9871 93.7666 3.63986 93.004 2.67166C92.2413 1.69434 91.1857 1.20567 89.8372 1.20567Z" fill="white"/>
<path d="M59.395 39.999L55.25 25.0718H55.1253C55.3193 27.5666 55.4164 29.505 55.4164 30.8869V39.999H50.5645V19.382H57.8562L62.0843 33.8222H62.1952L66.3402 19.382H73.6458V39.999H68.6136V30.8034C68.6136 30.3397 68.6183 29.8249 68.6275 29.2592C68.646 28.6935 68.7107 27.3069 68.8216 25.0996H68.6968L64.6073 39.999H59.395Z" fill="white"/>
<path d="M90.5 39.999L89.4492 35.9089H82.8644L81.8913 39.999H75.8749L82.4347 19.2985H89.7403L96.4887 39.999H90.5ZM88.3125 31.4016L87.4391 28.0628C87.2358 27.3209 86.9863 26.361 86.6905 25.1831C86.404 24.0053 86.2146 23.1613 86.1222 22.6512C86.039 23.1242 85.8726 23.9032 85.6231 24.9883C85.3828 26.0735 84.8422 28.2112 84.0012 31.4016H88.3125Z" fill="white"/>
<path d="M107.665 23.5972C106.362 23.5972 105.345 24.1351 104.615 25.2109C103.885 26.2775 103.52 27.7521 103.52 29.6348C103.52 33.5486 105.003 35.5055 107.97 35.5055C108.866 35.5055 109.735 35.3803 110.576 35.1299C111.417 34.8795 112.263 34.5781 113.113 34.2256V38.8721C111.422 39.6233 109.508 39.9989 107.374 39.9989C104.315 39.9989 101.967 39.1086 100.331 37.3279C98.7048 35.5472 97.8916 32.9736 97.8916 29.607C97.8916 27.5017 98.2843 25.6515 99.0699 24.0563C99.8647 22.4611 101.001 21.2369 102.48 20.3836C103.968 19.5211 105.715 19.0898 107.72 19.0898C109.91 19.0898 112.004 19.5675 114 20.5227L112.323 24.8492C111.574 24.4968 110.825 24.2 110.077 23.9589C109.328 23.7178 108.524 23.5972 107.665 23.5972Z" fill="white"/>
<path fill-rule="evenodd" clip-rule="evenodd" d="M0 0H42.6989V40H0V0ZM16.0001 26H39.0001V4.99999H5.00013V8.99999V26V36H16.0001V26Z" fill="white"/>
</svg>
