<svg width="219" height="446" viewBox="0 0 219 446" fill="none" xmlns="http://www.w3.org/2000/svg">
<path d="M62.7864 225.729C63.2867 227.596 62.1787 229.515 60.3115 230.015C58.4444 230.516 56.5252 229.408 56.0249 227.541C55.5246 225.673 56.6327 223.754 58.4998 223.254C60.3669 222.754 62.2861 223.862 62.7864 225.729Z" fill="url(#paint0_linear)" fill-opacity="0.4"/>
<path d="M60.9734 2.595C61.4737 4.46213 60.3657 6.38131 58.4985 6.88161C56.6314 7.38191 54.7122 6.27387 54.2119 4.40674C53.7116 2.5396 54.8197 0.620425 56.6868 0.120128C58.5539 -0.380168 60.4731 0.727871 60.9734 2.595Z" fill="url(#paint1_linear)" fill-opacity="0.4"/>
<path d="M123.09 234.417C123.59 236.284 122.482 238.204 120.615 238.704C118.748 239.204 116.828 238.096 116.328 236.229C115.828 234.362 116.936 232.443 118.803 231.942C120.67 231.442 122.589 232.55 123.09 234.417Z" fill="url(#paint2_linear)" fill-opacity="0.4"/>
<path d="M31.7283 109.818C32.2286 111.685 31.1205 113.604 29.2534 114.104C27.3863 114.605 25.4671 113.497 24.9668 111.63C24.4665 109.762 25.5745 107.843 27.4417 107.343C29.3088 106.843 31.228 107.951 31.7283 109.818Z" fill="url(#paint3_linear)" fill-opacity="0.4"/>
<path d="M93.8445 341.64C94.3448 343.507 93.2368 345.426 91.3696 345.927C89.5025 346.427 87.5833 345.319 87.083 343.452C86.5827 341.585 87.6908 339.665 89.5579 339.165C91.425 338.665 93.3442 339.773 93.8445 341.64Z" fill="url(#paint4_linear)" fill-opacity="0.4"/>
<path d="M92.0315 118.506C92.5318 120.373 91.4238 122.292 89.5566 122.793C87.6895 123.293 85.7703 122.185 85.27 120.318C84.7697 118.451 85.8778 116.532 87.7449 116.031C89.612 115.531 91.5312 116.639 92.0315 118.506Z" fill="url(#paint5_linear)" fill-opacity="0.4"/>
<path d="M154.148 350.328C154.649 352.195 153.54 354.115 151.673 354.615C149.806 355.115 147.887 354.007 147.387 352.14C146.886 350.273 147.994 348.354 149.862 347.853C151.729 347.353 153.648 348.461 154.148 350.328Z" fill="url(#paint6_linear)" fill-opacity="0.4"/>
<path d="M6.88161 17.0889C7.38191 18.956 6.27387 20.8752 4.40674 21.3755C2.5396 21.8758 0.620425 20.7678 0.120128 18.9006C-0.380168 17.0335 0.727871 15.1143 2.595 14.614C4.46213 14.1137 6.38131 15.2218 6.88161 17.0889Z" fill="url(#paint7_linear)" fill-opacity="0.4"/>
<path d="M68.9978 248.911C69.4981 250.778 68.3901 252.697 66.5229 253.198C64.6558 253.698 62.7366 252.59 62.2363 250.723C61.736 248.856 62.8441 246.937 64.7112 246.436C66.5783 245.936 68.4975 247.044 68.9978 248.911Z" fill="url(#paint8_linear)" fill-opacity="0.4"/>
<path d="M67.1848 25.7773C67.6851 27.6444 66.5771 29.5636 64.71 30.0639C62.8428 30.5642 60.9236 29.4561 60.4234 27.589C59.9231 25.7219 61.0311 23.8027 62.8982 23.3024C64.7654 22.8021 66.6845 23.9101 67.1848 25.7773Z" fill="url(#paint9_linear)" fill-opacity="0.4"/>
<path d="M129.302 257.599C129.802 259.467 128.694 261.386 126.827 261.886C124.96 262.386 123.04 261.278 122.54 259.411C122.04 257.544 123.148 255.625 125.015 255.125C126.882 254.624 128.801 255.732 129.302 257.599Z" fill="url(#paint10_linear)" fill-opacity="0.4"/>
<path d="M37.9397 133C38.44 134.867 37.332 136.786 35.4648 137.287C33.5977 137.787 31.6785 136.679 31.1782 134.812C30.6779 132.945 31.786 131.025 33.6531 130.525C35.5202 130.025 37.4394 131.133 37.9397 133Z" fill="url(#paint11_linear)" fill-opacity="0.4"/>
<path d="M100.056 364.822C100.557 366.689 99.4487 368.608 97.5815 369.109C95.7144 369.609 93.7952 368.501 93.2949 366.634C92.7946 364.767 93.9027 362.848 95.7698 362.347C97.6369 361.847 99.5561 362.955 100.056 364.822Z" fill="url(#paint12_linear)" fill-opacity="0.4"/>
<path d="M98.2434 141.688C98.7437 143.555 97.6357 145.475 95.7686 145.975C93.9014 146.475 91.9822 145.367 91.4819 143.5C90.9816 141.633 92.0897 139.714 93.9568 139.213C95.8239 138.713 97.7431 139.821 98.2434 141.688Z" fill="url(#paint13_linear)" fill-opacity="0.4"/>
<path d="M160.36 373.511C160.86 375.378 159.752 377.297 157.885 377.797C156.018 378.297 154.098 377.189 153.598 375.322C153.098 373.455 154.206 371.536 156.073 371.036C157.94 370.535 159.859 371.643 160.36 373.511Z" fill="url(#paint14_linear)" fill-opacity="0.4"/>
<path d="M13.093 40.2711C13.5933 42.1382 12.4853 44.0574 10.6182 44.5577C8.75103 45.058 6.83185 43.95 6.33155 42.0828C5.83126 40.2157 6.9393 38.2965 8.80643 37.7962C10.6736 37.2959 12.5927 38.404 13.093 40.2711Z" fill="url(#paint15_linear)" fill-opacity="0.4"/>
<path d="M75.2097 272.093C75.71 273.96 74.602 275.88 72.7349 276.38C70.8677 276.88 68.9485 275.772 68.4482 273.905C67.948 272.038 69.056 270.119 70.9231 269.618C72.7903 269.118 74.7094 270.226 75.2097 272.093Z" fill="url(#paint16_linear)" fill-opacity="0.4"/>
<path d="M73.3967 48.9594C73.897 50.8266 72.789 52.7458 70.9219 53.2461C69.0547 53.7463 67.1356 52.6383 66.6353 50.7712C66.135 48.904 67.243 46.9849 69.1101 46.4846C70.9773 45.9843 72.8964 47.0923 73.3967 48.9594Z" fill="url(#paint17_linear)" fill-opacity="0.4"/>
<path d="M135.513 280.782C136.013 282.649 134.905 284.568 133.038 285.068C131.171 285.569 129.252 284.461 128.751 282.593C128.251 280.726 129.359 278.807 131.226 278.307C133.093 277.806 135.013 278.915 135.513 280.782Z" fill="url(#paint18_linear)" fill-opacity="0.4"/>
<path d="M44.1511 156.182C44.6514 158.049 43.5434 159.969 41.6763 160.469C39.8091 160.969 37.89 159.861 37.3897 157.994C36.8894 156.127 37.9974 154.208 39.8645 153.707C41.7317 153.207 43.6508 154.315 44.1511 156.182Z" fill="url(#paint19_linear)" fill-opacity="0.4"/>
<path d="M106.268 388.004C106.768 389.871 105.66 391.791 103.793 392.291C101.926 392.791 100.007 391.683 99.5064 389.816C99.0061 387.949 100.114 386.03 101.981 385.529C103.848 385.029 105.768 386.137 106.268 388.004Z" fill="url(#paint20_linear)" fill-opacity="0.4"/>
<path d="M104.455 164.871C104.955 166.738 103.847 168.657 101.98 169.157C100.113 169.657 98.1937 168.549 97.6934 166.682C97.1931 164.815 98.3011 162.896 100.168 162.396C102.035 161.895 103.955 163.003 104.455 164.871Z" fill="url(#paint21_linear)" fill-opacity="0.4"/>
<path d="M166.572 396.693C167.072 398.56 165.964 400.479 164.097 400.979C162.23 401.48 160.31 400.372 159.81 398.504C159.31 396.637 160.418 394.718 162.285 394.218C164.152 393.718 166.071 394.826 166.572 396.693Z" fill="url(#paint22_linear)" fill-opacity="0.4"/>
<path d="M19.3049 63.4533C19.8052 65.3205 18.6972 67.2396 16.8301 67.7399C14.9629 68.2402 13.0438 67.1322 12.5435 65.2651C12.0432 63.3979 13.1512 61.4788 15.0183 60.9785C16.8855 60.4782 18.8047 61.5862 19.3049 63.4533Z" fill="url(#paint23_linear)" fill-opacity="0.4"/>
<path d="M81.4212 295.275C81.9215 297.143 80.8134 299.062 78.9463 299.562C77.0792 300.062 75.16 298.954 74.6597 297.087C74.1594 295.22 75.2674 293.301 77.1346 292.801C79.0017 292.3 80.9209 293.408 81.4212 295.275Z" fill="url(#paint24_linear)" fill-opacity="0.4"/>
<path d="M79.6082 72.1417C80.1085 74.0088 79.0004 75.928 77.1333 76.4283C75.2662 76.9286 73.347 75.8206 72.8467 73.9534C72.3464 72.0863 73.4544 70.1671 75.3216 69.6668C77.1887 69.1665 79.1079 70.2746 79.6082 72.1417Z" fill="url(#paint25_linear)" fill-opacity="0.4"/>
<path d="M141.725 303.964C142.225 305.831 141.117 307.75 139.25 308.25C137.383 308.751 135.464 307.643 134.963 305.776C134.463 303.908 135.571 301.989 137.438 301.489C139.305 300.989 141.225 302.097 141.725 303.964Z" fill="url(#paint26_linear)" fill-opacity="0.4"/>
<path d="M50.3631 179.364C50.8634 181.232 49.7553 183.151 47.8882 183.651C46.021 184.151 44.1019 183.043 43.6016 181.176C43.1013 179.309 44.2093 177.39 46.0764 176.89C47.9436 176.389 49.8628 177.497 50.3631 179.364Z" fill="url(#paint27_linear)" fill-opacity="0.4"/>
<path d="M112.48 411.187C112.98 413.054 111.872 414.973 110.005 415.473C108.138 415.974 106.219 414.865 105.718 412.998C105.218 411.131 106.326 409.212 108.193 408.712C110.06 408.211 111.979 409.319 112.48 411.187Z" fill="url(#paint28_linear)" fill-opacity="0.4"/>
<path d="M110.667 188.053C111.167 189.92 110.059 191.839 108.192 192.339C106.325 192.84 104.406 191.732 103.905 189.865C103.405 187.997 104.513 186.078 106.38 185.578C108.247 185.078 110.166 186.186 110.667 188.053Z" fill="url(#paint29_linear)" fill-opacity="0.4"/>
<path d="M172.783 419.875C173.283 421.742 172.175 423.661 170.308 424.162C168.441 424.662 166.522 423.554 166.021 421.687C165.521 419.82 166.629 417.9 168.496 417.4C170.363 416.9 172.283 418.008 172.783 419.875Z" fill="url(#paint30_linear)" fill-opacity="0.4"/>
<path d="M25.5164 86.6355C26.0167 88.5027 24.9086 90.4218 23.0415 90.9221C21.1744 91.4224 19.2552 90.3144 18.7549 88.4473C18.2546 86.5801 19.3626 84.661 21.2298 84.1607C23.0969 83.6604 25.0161 84.7684 25.5164 86.6355Z" fill="url(#paint31_linear)" fill-opacity="0.4"/>
<path d="M87.6331 318.458C88.1334 320.325 87.0253 322.244 85.1582 322.744C83.2911 323.245 81.3719 322.137 80.8716 320.269C80.3713 318.402 81.4793 316.483 83.3465 315.983C85.2136 315.483 87.1328 316.591 87.6331 318.458Z" fill="url(#paint32_linear)" fill-opacity="0.4"/>
<path d="M85.8201 95.3239C86.3204 97.191 85.2123 99.1102 83.3452 99.6105C81.4781 100.111 79.5589 99.0028 79.0586 97.1356C78.5583 95.2685 79.6663 93.3493 81.5335 92.849C83.4006 92.3487 85.3198 93.4568 85.8201 95.3239Z" fill="url(#paint33_linear)" fill-opacity="0.4"/>
<path d="M147.936 327.146C148.437 329.013 147.329 330.932 145.461 331.433C143.594 331.933 141.675 330.825 141.175 328.958C140.675 327.091 141.783 325.171 143.65 324.671C145.517 324.171 147.436 325.279 147.936 327.146Z" fill="url(#paint34_linear)" fill-opacity="0.4"/>
<path d="M56.5745 202.547C57.0748 204.414 55.9667 206.333 54.0996 206.833C52.2325 207.334 50.3133 206.225 49.813 204.358C49.3127 202.491 50.4207 200.572 52.2879 200.072C54.155 199.571 56.0742 200.679 56.5745 202.547Z" fill="url(#paint35_linear)" fill-opacity="0.4"/>
<path d="M118.691 434.369C119.191 436.236 118.083 438.155 116.216 438.655C114.349 439.156 112.43 438.048 111.93 436.181C111.429 434.313 112.537 432.394 114.405 431.894C116.272 431.394 118.191 432.502 118.691 434.369Z" fill="url(#paint36_linear)" fill-opacity="0.4"/>
<path d="M116.878 211.235C117.378 213.102 116.27 215.021 114.403 215.522C112.536 216.022 110.617 214.914 110.117 213.047C109.616 211.18 110.724 209.26 112.592 208.76C114.459 208.26 116.378 209.368 116.878 211.235Z" fill="url(#paint37_linear)" fill-opacity="0.4"/>
<path d="M77.8621 227.901C78.3624 229.768 77.2543 231.687 75.3872 232.188C73.5201 232.688 71.6009 231.58 71.1006 229.713C70.6003 227.846 71.7083 225.926 73.5755 225.426C75.4426 224.926 77.3618 226.034 77.8621 227.901Z" fill="url(#paint38_linear)" fill-opacity="0.4"/>
<path d="M76.0491 4.76712C76.5494 6.63425 75.4414 8.55343 73.5742 9.05373C71.7071 9.55402 69.7879 8.44599 69.2876 6.57885C68.7873 4.71172 69.8954 2.79254 71.7625 2.29225C73.6296 1.79195 75.5488 2.89999 76.0491 4.76712Z" fill="url(#paint39_linear)" fill-opacity="0.4"/>
<path d="M138.166 236.589C138.666 238.456 137.558 240.376 135.691 240.876C133.824 241.376 131.905 240.268 131.404 238.401C130.904 236.534 132.012 234.615 133.879 234.114C135.746 233.614 137.665 234.722 138.166 236.589Z" fill="url(#paint40_linear)" fill-opacity="0.4"/>
<path d="M46.804 111.99C47.3043 113.857 46.1962 115.776 44.3291 116.276C42.462 116.777 40.5428 115.669 40.0425 113.802C39.5422 111.934 40.6502 110.015 42.5174 109.515C44.3845 109.015 46.3037 110.123 46.804 111.99Z" fill="url(#paint41_linear)" fill-opacity="0.4"/>
<path d="M108.921 343.812C109.421 345.679 108.313 347.598 106.446 348.099C104.579 348.599 102.659 347.491 102.159 345.624C101.659 343.757 102.767 341.837 104.634 341.337C106.501 340.837 108.42 341.945 108.921 343.812Z" fill="url(#paint42_linear)" fill-opacity="0.4"/>
<path d="M107.107 120.678C107.607 122.545 106.499 124.465 104.632 124.965C102.765 125.465 100.846 124.357 100.346 122.49C99.8454 120.623 100.953 118.704 102.821 118.203C104.688 117.703 106.607 118.811 107.107 120.678Z" fill="url(#paint43_linear)" fill-opacity="0.4"/>
<path d="M169.224 352.5C169.724 354.368 168.616 356.287 166.749 356.787C164.882 357.287 162.963 356.179 162.462 354.312C161.962 352.445 163.07 350.526 164.937 350.026C166.804 349.525 168.724 350.633 169.224 352.5Z" fill="url(#paint44_linear)" fill-opacity="0.4"/>
<path d="M21.9573 19.261C22.4576 21.1281 21.3495 23.0473 19.4824 23.5476C17.6153 24.0479 15.6961 22.9398 15.1958 21.0727C14.6955 19.2056 15.8036 17.2864 17.6707 16.7861C19.5378 16.2858 21.457 17.3938 21.9573 19.261Z" fill="url(#paint45_linear)" fill-opacity="0.4"/>
<path d="M84.074 251.083C84.5743 252.95 83.4663 254.869 81.5991 255.37C79.732 255.87 77.8128 254.762 77.3125 252.895C76.8122 251.028 77.9203 249.109 79.7874 248.608C81.6545 248.108 83.5737 249.216 84.074 251.083Z" fill="url(#paint46_linear)" fill-opacity="0.4"/>
<path d="M82.261 27.9493C82.7613 29.8164 81.6533 31.7356 79.7861 32.2359C77.919 32.7362 75.9998 31.6282 75.4995 29.761C74.9992 27.8939 76.1073 25.9747 77.9744 25.4744C79.8415 24.9741 81.7607 26.0822 82.261 27.9493Z" fill="url(#paint47_linear)" fill-opacity="0.4"/>
<path d="M144.377 259.772C144.878 261.639 143.769 263.558 141.902 264.058C140.035 264.558 138.116 263.45 137.616 261.583C137.115 259.716 138.223 257.797 140.091 257.297C141.958 256.796 143.877 257.904 144.377 259.772Z" fill="url(#paint48_linear)" fill-opacity="0.4"/>
<path d="M53.0154 135.172C53.5157 137.039 52.4077 138.958 50.5405 139.459C48.6734 139.959 46.7542 138.851 46.2539 136.984C45.7536 135.117 46.8617 133.198 48.7288 132.697C50.5959 132.197 52.5151 133.305 53.0154 135.172Z" fill="url(#paint49_linear)" fill-opacity="0.4"/>
<path d="M115.132 366.994C115.632 368.861 114.524 370.781 112.657 371.281C110.79 371.781 108.871 370.673 108.371 368.806C107.87 366.939 108.978 365.02 110.845 364.519C112.713 364.019 114.632 365.127 115.132 366.994Z" fill="url(#paint50_linear)" fill-opacity="0.4"/>
<path d="M113.319 143.86C113.819 145.728 112.711 147.647 110.844 148.147C108.977 148.647 107.058 147.539 106.558 145.672C106.057 143.805 107.165 141.886 109.033 141.386C110.9 140.885 112.819 141.993 113.319 143.86Z" fill="url(#paint51_linear)" fill-opacity="0.4"/>
<path d="M175.436 375.683C175.936 377.55 174.828 379.469 172.961 379.969C171.094 380.47 169.175 379.361 168.674 377.494C168.174 375.627 169.282 373.708 171.149 373.208C173.016 372.707 174.936 373.815 175.436 375.683Z" fill="url(#paint52_linear)" fill-opacity="0.4"/>
<path d="M28.1687 42.4432C28.669 44.3103 27.561 46.2295 25.6938 46.7298C23.8267 47.2301 21.9075 46.1221 21.4072 44.2549C20.9069 42.3878 22.015 40.4686 23.8821 39.9683C25.7492 39.468 27.6684 40.5761 28.1687 42.4432Z" fill="url(#paint53_linear)" fill-opacity="0.4"/>
<path d="M90.2854 274.265C90.7857 276.132 89.6777 278.052 87.8105 278.552C85.9434 279.052 84.0242 277.944 83.5239 276.077C83.0236 274.21 84.1317 272.291 85.9988 271.79C87.8659 271.29 89.7851 272.398 90.2854 274.265Z" fill="url(#paint54_linear)" fill-opacity="0.4"/>
<path d="M88.4724 51.1316C88.9727 52.9987 87.8647 54.9179 85.9976 55.4182C84.1304 55.9185 82.2112 54.8104 81.7109 52.9433C81.2106 51.0762 82.3187 49.157 84.1858 48.6567C86.053 48.1564 87.9721 49.2644 88.4724 51.1316Z" fill="url(#paint55_linear)" fill-opacity="0.4"/>
<path d="M150.589 282.954C151.089 284.821 149.981 286.74 148.114 287.24C146.247 287.741 144.328 286.633 143.828 284.765C143.327 282.898 144.435 280.979 146.303 280.479C148.17 279.979 150.089 281.087 150.589 282.954Z" fill="url(#paint56_linear)" fill-opacity="0.4"/>
<path d="M59.2273 158.354C59.7276 160.221 58.6196 162.141 56.7524 162.641C54.8853 163.141 52.9661 162.033 52.4658 160.166C51.9655 158.299 53.0736 156.38 54.9407 155.879C56.8078 155.379 58.727 156.487 59.2273 158.354Z" fill="url(#paint57_linear)" fill-opacity="0.4"/>
<path d="M121.344 390.176C121.844 392.044 120.736 393.963 118.869 394.463C117.002 394.963 115.083 393.855 114.583 391.988C114.082 390.121 115.19 388.202 117.057 387.702C118.925 387.201 120.844 388.309 121.344 390.176Z" fill="url(#paint58_linear)" fill-opacity="0.4"/>
<path d="M119.531 167.043C120.031 168.91 118.923 170.829 117.056 171.329C115.189 171.83 113.269 170.722 112.769 168.854C112.269 166.987 113.377 165.068 115.244 164.568C117.111 164.067 119.03 165.176 119.531 167.043Z" fill="url(#paint59_linear)" fill-opacity="0.4"/>
<path d="M181.647 398.865C182.148 400.732 181.039 402.651 179.172 403.151C177.305 403.652 175.386 402.544 174.886 400.677C174.385 398.809 175.493 396.89 177.361 396.39C179.228 395.89 181.147 396.998 181.647 398.865Z" fill="url(#paint60_linear)" fill-opacity="0.4"/>
<path d="M34.3806 65.6254C34.8809 67.4925 33.7729 69.4117 31.9058 69.912C30.0386 70.4123 28.1194 69.3043 27.6192 67.4371C27.1189 65.57 28.2269 63.6508 30.094 63.1505C31.9612 62.6502 33.8803 63.7583 34.3806 65.6254Z" fill="url(#paint61_linear)" fill-opacity="0.4"/>
<path d="M96.4973 297.448C96.9976 299.315 95.8896 301.234 94.0225 301.734C92.1553 302.235 90.2361 301.126 89.7358 299.259C89.2356 297.392 90.3436 295.473 92.2107 294.973C94.0779 294.472 95.997 295.58 96.4973 297.448Z" fill="url(#paint62_linear)" fill-opacity="0.4"/>
<path d="M94.6843 74.3138C95.1846 76.1809 94.0766 78.1001 92.2095 78.6004C90.3423 79.1007 88.4232 77.9926 87.9229 76.1255C87.4226 74.2584 88.5306 72.3392 90.3977 71.8389C92.2649 71.3386 94.184 72.4466 94.6843 74.3138Z" fill="url(#paint63_linear)" fill-opacity="0.4"/>
<path d="M156.801 306.136C157.301 308.003 156.193 309.922 154.326 310.423C152.459 310.923 150.539 309.815 150.039 307.948C149.539 306.081 150.647 304.161 152.514 303.661C154.381 303.161 156.3 304.269 156.801 306.136Z" fill="url(#paint64_linear)" fill-opacity="0.4"/>
<path d="M65.4387 181.536C65.939 183.404 64.831 185.323 62.9639 185.823C61.0967 186.323 59.1776 185.215 58.6773 183.348C58.177 181.481 59.285 179.562 61.1521 179.062C63.0193 178.561 64.9384 179.669 65.4387 181.536Z" fill="url(#paint65_linear)" fill-opacity="0.4"/>
<path d="M127.555 413.359C128.056 415.226 126.948 417.145 125.081 417.645C123.213 418.146 121.294 417.038 120.794 415.17C120.294 413.303 121.402 411.384 123.269 410.884C125.136 410.384 127.055 411.492 127.555 413.359Z" fill="url(#paint66_linear)" fill-opacity="0.4"/>
<path d="M125.742 190.225C126.243 192.092 125.135 194.011 123.268 194.511C121.4 195.012 119.481 193.904 118.981 192.037C118.481 190.169 119.589 188.25 121.456 187.75C123.323 187.25 125.242 188.358 125.742 190.225Z" fill="url(#paint67_linear)" fill-opacity="0.4"/>
<path d="M187.859 422.047C188.359 423.914 187.251 425.833 185.384 426.334C183.517 426.834 181.598 425.726 181.098 423.859C180.597 421.992 181.705 420.073 183.573 419.572C185.44 419.072 187.359 420.18 187.859 422.047Z" fill="url(#paint68_linear)" fill-opacity="0.4"/>
<path d="M40.5921 88.8077C41.0924 90.6748 39.9843 92.594 38.1172 93.0943C36.2501 93.5946 34.3309 92.4865 33.8306 90.6194C33.3303 88.7523 34.4383 86.8331 36.3055 86.3328C38.1726 85.8325 40.0918 86.9405 40.5921 88.8077Z" fill="url(#paint69_linear)" fill-opacity="0.4"/>
<path d="M102.709 320.63C103.209 322.497 102.101 324.416 100.234 324.916C98.3668 325.417 96.4476 324.309 95.9473 322.442C95.447 320.574 96.555 318.655 98.4221 318.155C100.289 317.655 102.208 318.763 102.709 320.63Z" fill="url(#paint70_linear)" fill-opacity="0.4"/>
<path d="M100.896 97.496C101.396 99.3631 100.288 101.282 98.4209 101.783C96.5538 102.283 94.6346 101.175 94.1343 99.3077C93.634 97.4406 94.742 95.5214 96.6092 95.0211C98.4763 94.5208 100.395 95.6289 100.896 97.496Z" fill="url(#paint71_linear)" fill-opacity="0.4"/>
<path d="M163.012 329.318C163.513 331.185 162.405 333.105 160.538 333.605C158.67 334.105 156.751 332.997 156.251 331.13C155.751 329.263 156.859 327.344 158.726 326.843C160.593 326.343 162.512 327.451 163.012 329.318Z" fill="url(#paint72_linear)" fill-opacity="0.4"/>
<path d="M71.6507 204.719C72.1509 206.586 71.0429 208.505 69.1758 209.005C67.3086 209.506 65.3895 208.398 64.8892 206.53C64.3889 204.663 65.4969 202.744 67.364 202.244C69.2312 201.744 71.1504 202.852 71.6507 204.719Z" fill="url(#paint73_linear)" fill-opacity="0.4"/>
<path d="M133.767 436.541C134.268 438.408 133.16 440.327 131.292 440.828C129.425 441.328 127.506 440.22 127.006 438.353C126.506 436.486 127.614 434.566 129.481 434.066C131.348 433.566 133.267 434.674 133.767 436.541Z" fill="url(#paint74_linear)" fill-opacity="0.4"/>
<path d="M131.954 213.407C132.454 215.274 131.346 217.193 129.479 217.694C127.612 218.194 125.693 217.086 125.192 215.219C124.692 213.352 125.8 211.433 127.667 210.932C129.534 210.432 131.454 211.54 131.954 213.407Z" fill="url(#paint75_linear)" fill-opacity="0.4"/>
<path d="M92.9382 230.073C93.4385 231.94 92.3305 233.859 90.4634 234.36C88.5962 234.86 86.6771 233.752 86.1768 231.885C85.6765 230.018 86.7845 228.098 88.6516 227.598C90.5188 227.098 92.438 228.206 92.9382 230.073Z" fill="url(#paint76_linear)" fill-opacity="0.4"/>
<path d="M91.1253 6.93918C91.6256 8.80631 90.5175 10.7255 88.6504 11.2258C86.7833 11.7261 84.8641 10.618 84.3638 8.75091C83.8635 6.88378 84.9715 4.9646 86.8387 4.46431C88.7058 3.96401 90.625 5.07205 91.1253 6.93918Z" fill="url(#paint77_linear)" fill-opacity="0.4"/>
<path d="M153.241 238.761C153.742 240.629 152.634 242.548 150.767 243.048C148.899 243.548 146.98 242.44 146.48 240.573C145.98 238.706 147.088 236.787 148.955 236.287C150.822 235.786 152.741 236.894 153.241 238.761Z" fill="url(#paint78_linear)" fill-opacity="0.4"/>
<path d="M61.8797 114.162C62.38 116.029 61.2719 117.948 59.4048 118.449C57.5376 118.949 55.6185 117.841 55.1182 115.974C54.6179 114.107 55.7259 112.187 57.593 111.687C59.4602 111.187 61.3794 112.295 61.8797 114.162Z" fill="url(#paint79_linear)" fill-opacity="0.4"/>
<path d="M123.996 345.984C124.497 347.851 123.389 349.77 121.521 350.271C119.654 350.771 117.735 349.663 117.235 347.796C116.735 345.929 117.843 344.01 119.71 343.509C121.577 343.009 123.496 344.117 123.996 345.984Z" fill="url(#paint80_linear)" fill-opacity="0.4"/>
<path d="M122.183 122.85C122.684 124.717 121.576 126.637 119.708 127.137C117.841 127.637 115.922 126.529 115.422 124.662C114.922 122.795 116.03 120.876 117.897 120.375C119.764 119.875 121.683 120.983 122.183 122.85Z" fill="url(#paint81_linear)" fill-opacity="0.4"/>
<path d="M184.3 354.672C184.8 356.54 183.692 358.459 181.825 358.959C179.958 359.459 178.039 358.351 177.539 356.484C177.038 354.617 178.146 352.698 180.013 352.198C181.881 351.697 183.8 352.805 184.3 354.672Z" fill="url(#paint82_linear)" fill-opacity="0.4"/>
<path d="M37.033 21.4331C37.5333 23.3002 36.4252 25.2194 34.5581 25.7197C32.691 26.22 30.7718 25.1119 30.2715 23.2448C29.7712 21.3777 30.8792 19.4585 32.7464 18.9582C34.6135 18.4579 36.5327 19.5659 37.033 21.4331Z" fill="url(#paint83_linear)" fill-opacity="0.4"/>
<path d="M99.1497 253.255C99.65 255.122 98.5419 257.042 96.6748 257.542C94.8077 258.042 92.8885 256.934 92.3882 255.067C91.8879 253.2 92.9959 251.281 94.8631 250.78C96.7302 250.28 98.6494 251.388 99.1497 253.255Z" fill="url(#paint84_linear)" fill-opacity="0.4"/>
<path d="M97.3367 30.1214C97.837 31.9886 96.7289 33.9077 94.8618 34.408C92.9947 34.9083 91.0755 33.8003 90.5752 31.9332C90.0749 30.066 91.1829 28.1469 93.0501 27.6466C94.9172 27.1463 96.8364 28.2543 97.3367 30.1214Z" fill="url(#paint85_linear)" fill-opacity="0.4"/>
<path d="M159.453 261.944C159.954 263.811 158.846 265.73 156.979 266.23C155.111 266.73 153.192 265.622 152.692 263.755C152.192 261.888 153.3 259.969 155.167 259.469C157.034 258.968 158.953 260.076 159.453 261.944Z" fill="url(#paint86_linear)" fill-opacity="0.4"/>
<path d="M68.0916 137.344C68.5919 139.211 67.4838 141.13 65.6167 141.631C63.7496 142.131 61.8304 141.023 61.3301 139.156C60.8298 137.289 61.9378 135.37 63.805 134.869C65.6721 134.369 67.5913 135.477 68.0916 137.344Z" fill="url(#paint87_linear)" fill-opacity="0.4"/>
<path d="M130.208 369.166C130.709 371.033 129.601 372.953 127.733 373.453C125.866 373.953 123.947 372.845 123.447 370.978C122.946 369.111 124.055 367.192 125.922 366.691C127.789 366.191 129.708 367.299 130.208 369.166Z" fill="url(#paint88_linear)" fill-opacity="0.4"/>
<path d="M128.395 146.033C128.895 147.9 127.787 149.819 125.92 150.319C124.053 150.819 122.134 149.711 121.633 147.844C121.133 145.977 122.241 144.058 124.108 143.558C125.975 143.057 127.894 144.165 128.395 146.033Z" fill="url(#paint89_linear)" fill-opacity="0.4"/>
<path d="M190.511 377.855C191.012 379.722 189.904 381.641 188.037 382.141C186.169 382.642 184.25 381.534 183.75 379.666C183.25 377.799 184.358 375.88 186.225 375.38C188.092 374.88 190.011 375.988 190.511 377.855Z" fill="url(#paint90_linear)" fill-opacity="0.4"/>
<path d="M43.2449 44.6153C43.7452 46.4824 42.6371 48.4016 40.77 48.9019C38.9029 49.4022 36.9837 48.2941 36.4834 46.427C35.9831 44.5599 37.0912 42.6407 38.9583 42.1404C40.8254 41.6401 42.7446 42.7481 43.2449 44.6153Z" fill="url(#paint91_linear)" fill-opacity="0.4"/>
<path d="M105.362 276.437C105.862 278.305 104.754 280.224 102.887 280.724C101.02 281.224 99.1004 280.116 98.6001 278.249C98.0998 276.382 99.2079 274.463 101.075 273.963C102.942 273.462 104.861 274.57 105.362 276.437Z" fill="url(#paint92_linear)" fill-opacity="0.4"/>
<path d="M103.548 53.3036C104.048 55.1708 102.94 57.0899 101.073 57.5902C99.2061 58.0905 97.2869 56.9825 96.7866 55.1154C96.2863 53.2482 97.3944 51.329 99.2615 50.8287C101.129 50.3285 103.048 51.4365 103.548 53.3036Z" fill="url(#paint93_linear)" fill-opacity="0.4"/>
<path d="M165.665 285.126C166.165 286.993 165.057 288.912 163.19 289.412C161.323 289.913 159.404 288.805 158.903 286.938C158.403 285.07 159.511 283.151 161.378 282.651C163.245 282.151 165.165 283.259 165.665 285.126Z" fill="url(#paint94_linear)" fill-opacity="0.4"/>
<path d="M74.303 160.526C74.8033 162.393 73.6953 164.313 71.8281 164.813C69.961 165.313 68.0418 164.205 67.5415 162.338C67.0412 160.471 68.1493 158.552 70.0164 158.051C71.8835 157.551 73.8027 158.659 74.303 160.526Z" fill="url(#paint95_linear)" fill-opacity="0.4"/>
<path d="M136.42 392.349C136.92 394.216 135.812 396.135 133.945 396.635C132.078 397.136 130.159 396.027 129.658 394.16C129.158 392.293 130.266 390.374 132.133 389.874C134 389.373 135.919 390.481 136.42 392.349Z" fill="url(#paint96_linear)" fill-opacity="0.4"/>
<path d="M134.607 169.215C135.107 171.082 133.999 173.001 132.132 173.501C130.265 174.002 128.346 172.894 127.845 171.026C127.345 169.159 128.453 167.24 130.32 166.74C132.187 166.24 134.106 167.348 134.607 169.215Z" fill="url(#paint97_linear)" fill-opacity="0.4"/>
<path d="M196.723 401.037C197.224 402.904 196.116 404.823 194.249 405.324C192.381 405.824 190.462 404.716 189.962 402.849C189.462 400.982 190.57 399.062 192.437 398.562C194.304 398.062 196.223 399.17 196.723 401.037Z" fill="url(#paint98_linear)" fill-opacity="0.4"/>
<path d="M49.4563 67.7975C49.9566 69.6647 48.8486 71.5838 46.9814 72.0841C45.1143 72.5844 43.1951 71.4764 42.6948 69.6093C42.1945 67.7421 43.3026 65.8229 45.1697 65.3226C47.0368 64.8224 48.956 65.9304 49.4563 67.7975Z" fill="url(#paint99_linear)" fill-opacity="0.4"/>
<path d="M111.573 299.62C112.073 301.487 110.965 303.406 109.098 303.906C107.231 304.407 105.312 303.299 104.812 301.431C104.311 299.564 105.419 297.645 107.286 297.145C109.154 296.645 111.073 297.753 111.573 299.62Z" fill="url(#paint100_linear)" fill-opacity="0.4"/>
<path d="M109.76 76.4859C110.26 78.353 109.152 80.2722 107.285 80.7725C105.418 81.2728 103.499 80.1647 102.999 78.2976C102.498 76.4305 103.606 74.5113 105.473 74.011C107.341 73.5107 109.26 74.6187 109.76 76.4859Z" fill="url(#paint101_linear)" fill-opacity="0.4"/>
<path d="M171.877 308.308C172.377 310.175 171.269 312.094 169.402 312.595C167.535 313.095 165.616 311.987 165.115 310.12C164.615 308.253 165.723 306.333 167.59 305.833C169.457 305.333 171.376 306.441 171.877 308.308Z" fill="url(#paint102_linear)" fill-opacity="0.4"/>
<path d="M80.5149 183.709C81.0152 185.576 79.9072 187.495 78.04 187.995C76.1729 188.495 74.2537 187.387 73.7534 185.52C73.2531 183.653 74.3612 181.734 76.2283 181.234C78.0954 180.733 80.0146 181.841 80.5149 183.709Z" fill="url(#paint103_linear)" fill-opacity="0.4"/>
<path d="M142.631 415.531C143.131 417.398 142.023 419.317 140.156 419.817C138.289 420.318 136.37 419.21 135.87 417.343C135.369 415.475 136.477 413.556 138.345 413.056C140.212 412.556 142.131 413.664 142.631 415.531Z" fill="url(#paint104_linear)" fill-opacity="0.4"/>
<path d="M140.818 192.397C141.318 194.264 140.21 196.183 138.343 196.684C136.476 197.184 134.557 196.076 134.057 194.209C133.556 192.342 134.664 190.422 136.532 189.922C138.399 189.422 140.318 190.53 140.818 192.397Z" fill="url(#paint105_linear)" fill-opacity="0.4"/>
<path d="M202.935 424.219C203.435 426.086 202.327 428.005 200.46 428.506C198.593 429.006 196.674 427.898 196.173 426.031C195.673 424.164 196.781 422.245 198.648 421.744C200.515 421.244 202.435 422.352 202.935 424.219Z" fill="url(#paint106_linear)" fill-opacity="0.4"/>
<path d="M55.6682 90.9797C56.1685 92.8468 55.0605 94.766 53.1934 95.2663C51.3262 95.7666 49.407 94.6586 48.9067 92.7914C48.4065 90.9243 49.5145 89.0051 51.3816 88.5048C53.2488 88.0045 55.1679 89.1126 55.6682 90.9797Z" fill="url(#paint107_linear)" fill-opacity="0.4"/>
<path d="M117.785 322.802C118.285 324.669 117.177 326.588 115.31 327.089C113.443 327.589 111.524 326.481 111.023 324.614C110.523 322.747 111.631 320.827 113.498 320.327C115.365 319.827 117.285 320.935 117.785 322.802Z" fill="url(#paint108_linear)" fill-opacity="0.4"/>
<path d="M115.971 99.6681C116.472 101.535 115.364 103.454 113.497 103.955C111.629 104.455 109.71 103.347 109.21 101.48C108.71 99.6127 109.818 97.6935 111.685 97.1932C113.552 96.6929 115.471 97.8009 115.971 99.6681Z" fill="url(#paint109_linear)" fill-opacity="0.4"/>
<path d="M178.088 331.49C178.588 333.357 177.48 335.277 175.613 335.777C173.746 336.277 171.827 335.169 171.327 333.302C170.826 331.435 171.934 329.516 173.802 329.015C175.669 328.515 177.588 329.623 178.088 331.49Z" fill="url(#paint110_linear)" fill-opacity="0.4"/>
<path d="M86.7263 206.891C87.2266 208.758 86.1186 210.677 84.2515 211.177C82.3843 211.678 80.4651 210.57 79.9649 208.703C79.4646 206.835 80.5726 204.916 82.4397 204.416C84.3069 203.916 86.226 205.024 86.7263 206.891Z" fill="url(#paint111_linear)" fill-opacity="0.4"/>
<path d="M148.843 438.713C149.343 440.58 148.235 442.499 146.368 443C144.501 443.5 142.582 442.392 142.082 440.525C141.581 438.658 142.689 436.738 144.556 436.238C146.424 435.738 148.343 436.846 148.843 438.713Z" fill="url(#paint112_linear)" fill-opacity="0.4"/>
<path d="M147.03 215.579C147.53 217.446 146.422 219.366 144.555 219.866C142.688 220.366 140.769 219.258 140.269 217.391C139.768 215.524 140.876 213.605 142.743 213.104C144.611 212.604 146.53 213.712 147.03 215.579Z" fill="url(#paint113_linear)" fill-opacity="0.4"/>
<path d="M108.014 232.245C108.514 234.112 107.406 236.031 105.539 236.532C103.672 237.032 101.753 235.924 101.252 234.057C100.752 232.19 101.86 230.271 103.727 229.77C105.594 229.27 107.514 230.378 108.014 232.245Z" fill="url(#paint114_linear)" fill-opacity="0.4"/>
<path d="M106.201 9.1113C106.701 10.9784 105.593 12.8976 103.726 13.3979C101.859 13.8982 99.9398 12.7902 99.4395 10.923C98.9392 9.0559 100.047 7.13672 101.914 6.63642C103.781 6.13613 105.701 7.24417 106.201 9.1113Z" fill="url(#paint115_linear)" fill-opacity="0.4"/>
<path d="M168.318 240.933C168.818 242.801 167.71 244.72 165.843 245.22C163.976 245.72 162.056 244.612 161.556 242.745C161.056 240.878 162.164 238.959 164.031 238.459C165.898 237.958 167.817 239.066 168.318 240.933Z" fill="url(#paint116_linear)" fill-opacity="0.4"/>
<path d="M76.9558 116.334C77.4561 118.201 76.3481 120.12 74.481 120.621C72.6138 121.121 70.6946 120.013 70.1943 118.146C69.694 116.279 70.8021 114.359 72.6692 113.859C74.5364 113.359 76.4555 114.467 76.9558 116.334Z" fill="url(#paint117_linear)" fill-opacity="0.4"/>
<path d="M139.072 348.156C139.572 350.023 138.464 351.943 136.597 352.443C134.73 352.943 132.811 351.835 132.311 349.968C131.81 348.101 132.918 346.182 134.785 345.681C136.653 345.181 138.572 346.289 139.072 348.156Z" fill="url(#paint118_linear)" fill-opacity="0.4"/>
<path d="M137.259 125.022C137.759 126.89 136.651 128.809 134.784 129.309C132.917 129.809 130.998 128.701 130.498 126.834C129.997 124.967 131.105 123.048 132.972 122.548C134.84 122.047 136.759 123.155 137.259 125.022Z" fill="url(#paint119_linear)" fill-opacity="0.4"/>
<path d="M199.376 356.845C199.876 358.712 198.768 360.631 196.901 361.131C195.034 361.631 193.115 360.523 192.614 358.656C192.114 356.789 193.222 354.87 195.089 354.37C196.956 353.869 198.875 354.977 199.376 356.845Z" fill="url(#paint120_linear)" fill-opacity="0.4"/>
<path d="M52.1091 23.6051C52.6094 25.4723 51.5014 27.3914 49.6343 27.8917C47.7671 28.392 45.848 27.284 45.3477 25.4169C44.8474 23.5497 45.9554 21.6306 47.8225 21.1303C49.6897 20.63 51.6089 21.738 52.1091 23.6051Z" fill="url(#paint121_linear)" fill-opacity="0.4"/>
<path d="M114.226 255.427C114.726 257.294 113.618 259.214 111.751 259.714C109.884 260.214 107.965 259.106 107.464 257.239C106.964 255.372 108.072 253.453 109.939 252.952C111.806 252.452 113.726 253.56 114.226 255.427Z" fill="url(#paint122_linear)" fill-opacity="0.4"/>
<path d="M112.412 32.2935C112.913 34.1606 111.805 36.0798 109.938 36.5801C108.07 37.0804 106.151 35.9724 105.651 34.1052C105.151 32.2381 106.259 30.3189 108.126 29.8186C109.993 29.3183 111.912 30.4264 112.412 32.2935Z" fill="url(#paint123_linear)" fill-opacity="0.4"/>
<path d="M174.529 264.116C175.029 265.983 173.921 267.902 172.054 268.402C170.187 268.903 168.268 267.795 167.768 265.927C167.267 264.06 168.375 262.141 170.242 261.641C172.11 261.141 174.029 262.249 174.529 264.116Z" fill="url(#paint124_linear)" fill-opacity="0.4"/>
<path d="M83.1673 139.516C83.6675 141.383 82.5595 143.303 80.6924 143.803C78.8253 144.303 76.9061 143.195 76.4058 141.328C75.9055 139.461 77.0135 137.542 78.8806 137.041C80.7478 136.541 82.667 137.649 83.1673 139.516Z" fill="url(#paint125_linear)" fill-opacity="0.4"/>
<path d="M145.284 371.338C145.784 373.206 144.676 375.125 142.809 375.625C140.942 376.125 139.023 375.017 138.522 373.15C138.022 371.283 139.13 369.364 140.997 368.864C142.864 368.363 144.784 369.471 145.284 371.338Z" fill="url(#paint126_linear)" fill-opacity="0.4"/>
<path d="M143.471 148.205C143.971 150.072 142.863 151.991 140.996 152.491C139.129 152.991 137.21 151.883 136.709 150.016C136.209 148.149 137.317 146.23 139.184 145.73C141.051 145.229 142.971 146.337 143.471 148.205Z" fill="url(#paint127_linear)" fill-opacity="0.4"/>
<path d="M205.587 380.027C206.087 381.894 204.979 383.813 203.112 384.313C201.245 384.814 199.326 383.706 198.826 381.839C198.325 379.971 199.433 378.052 201.301 377.552C203.168 377.052 205.087 378.16 205.587 380.027Z" fill="url(#paint128_linear)" fill-opacity="0.4"/>
<path d="M58.3206 46.7874C58.8209 48.6545 57.7128 50.5737 55.8457 51.074C53.9786 51.5743 52.0594 50.4662 51.5591 48.5991C51.0588 46.732 52.1668 44.8128 54.034 44.3125C55.9011 43.8122 57.8203 44.9203 58.3206 46.7874Z" fill="url(#paint129_linear)" fill-opacity="0.4"/>
<path d="M120.437 278.61C120.938 280.477 119.83 282.396 117.962 282.896C116.095 283.397 114.176 282.288 113.676 280.421C113.175 278.554 114.284 276.635 116.151 276.135C118.018 275.634 119.937 276.742 120.437 278.61Z" fill="url(#paint130_linear)" fill-opacity="0.4"/>
<path d="M118.624 55.4757C119.125 57.3429 118.017 59.2621 116.149 59.7623C114.282 60.2626 112.363 59.1546 111.863 57.2875C111.363 55.4203 112.471 53.5012 114.338 53.0009C116.205 52.5006 118.124 53.6086 118.624 55.4757Z" fill="url(#paint131_linear)" fill-opacity="0.4"/>
<path d="M180.741 287.298C181.241 289.165 180.133 291.084 178.266 291.585C176.399 292.085 174.48 290.977 173.98 289.11C173.479 287.243 174.587 285.323 176.454 284.823C178.322 284.323 180.241 285.431 180.741 287.298Z" fill="url(#paint132_linear)" fill-opacity="0.4"/>
<path d="M89.3792 162.698C89.8795 164.566 88.7714 166.485 86.9043 166.985C85.0372 167.485 83.118 166.377 82.6177 164.51C82.1174 162.643 83.2254 160.724 85.0926 160.224C86.9597 159.723 88.8789 160.831 89.3792 162.698Z" fill="url(#paint133_linear)" fill-opacity="0.4"/>
<path d="M151.495 394.521C151.996 396.388 150.888 398.307 149.021 398.807C147.153 399.308 145.234 398.2 144.734 396.332C144.234 394.465 145.342 392.546 147.209 392.046C149.076 391.545 150.995 392.654 151.495 394.521Z" fill="url(#paint134_linear)" fill-opacity="0.4"/>
<path d="M149.682 171.387C150.183 173.254 149.075 175.173 147.208 175.673C145.34 176.174 143.421 175.066 142.921 173.199C142.421 171.331 143.529 169.412 145.396 168.912C147.263 168.412 149.182 169.52 149.682 171.387Z" fill="url(#paint135_linear)" fill-opacity="0.4"/>
<path d="M211.799 403.209C212.299 405.076 211.191 406.995 209.324 407.496C207.457 407.996 205.538 406.888 205.038 405.021C204.537 403.154 205.645 401.234 207.512 400.734C209.38 400.234 211.299 401.342 211.799 403.209Z" fill="url(#paint136_linear)" fill-opacity="0.4"/>
<path d="M64.5325 69.9696C65.0328 71.8367 63.9247 73.7559 62.0576 74.2562C60.1905 74.7565 58.2713 73.6484 57.771 71.7813C57.2707 69.9142 58.3787 67.995 60.2459 67.4947C62.113 66.9944 64.0322 68.1025 64.5325 69.9696Z" fill="url(#paint137_linear)" fill-opacity="0.4"/>
<path d="M126.649 301.792C127.149 303.659 126.041 305.578 124.174 306.078C122.307 306.579 120.388 305.471 119.887 303.604C119.387 301.736 120.495 299.817 122.362 299.317C124.229 298.817 126.148 299.925 126.649 301.792Z" fill="url(#paint138_linear)" fill-opacity="0.4"/>
<path d="M124.836 78.6579C125.336 80.5251 124.228 82.4442 122.361 82.9445C120.494 83.4448 118.575 82.3368 118.074 80.4697C117.574 78.6025 118.682 76.6834 120.549 76.1831C122.416 75.6828 124.335 76.7908 124.836 78.6579Z" fill="url(#paint139_linear)" fill-opacity="0.4"/>
<path d="M186.952 310.48C187.453 312.347 186.345 314.266 184.478 314.767C182.61 315.267 180.691 314.159 180.191 312.292C179.691 310.425 180.799 308.506 182.666 308.005C184.533 307.505 186.452 308.613 186.952 310.48Z" fill="url(#paint140_linear)" fill-opacity="0.4"/>
<path d="M95.5906 185.881C96.0909 187.748 94.9829 189.667 93.1157 190.167C91.2486 190.668 89.3294 189.56 88.8291 187.692C88.3288 185.825 89.4369 183.906 91.304 183.406C93.1711 182.906 95.0903 184.014 95.5906 185.881Z" fill="url(#paint141_linear)" fill-opacity="0.4"/>
<path d="M157.707 417.703C158.208 419.57 157.1 421.489 155.232 421.99C153.365 422.49 151.446 421.382 150.946 419.515C150.446 417.648 151.554 415.728 153.421 415.228C155.288 414.728 157.207 415.836 157.707 417.703Z" fill="url(#paint142_linear)" fill-opacity="0.4"/>
<path d="M155.894 194.569C156.395 196.436 155.287 198.355 153.419 198.856C151.552 199.356 149.633 198.248 149.133 196.381C148.633 194.514 149.741 192.594 151.608 192.094C153.475 191.594 155.394 192.702 155.894 194.569Z" fill="url(#paint143_linear)" fill-opacity="0.4"/>
<path d="M218.011 426.391C218.511 428.258 217.403 430.178 215.536 430.678C213.669 431.178 211.749 430.07 211.249 428.203C210.749 426.336 211.857 424.417 213.724 423.916C215.591 423.416 217.51 424.524 218.011 426.391Z" fill="url(#paint144_linear)" fill-opacity="0.4"/>
<path d="M70.7439 93.1518C71.2442 95.019 70.1362 96.9381 68.269 97.4384C66.4019 97.9387 64.4827 96.8307 63.9824 94.9636C63.4821 93.0964 64.5902 91.1773 66.4573 90.677C68.3244 90.1767 70.2436 91.2847 70.7439 93.1518Z" fill="url(#paint145_linear)" fill-opacity="0.4"/>
<path d="M132.861 324.974C133.361 326.841 132.253 328.76 130.386 329.261C128.519 329.761 126.599 328.653 126.099 326.786C125.599 324.919 126.707 322.999 128.574 322.499C130.441 321.999 132.36 323.107 132.861 324.974Z" fill="url(#paint146_linear)" fill-opacity="0.4"/>
<path d="M131.048 101.84C131.548 103.707 130.44 105.626 128.573 106.127C126.706 106.627 124.786 105.519 124.286 103.652C123.786 101.785 124.894 99.8656 126.761 99.3653C128.628 98.865 130.547 99.9731 131.048 101.84Z" fill="url(#paint147_linear)" fill-opacity="0.4"/>
<path d="M193.164 333.662C193.665 335.529 192.557 337.449 190.689 337.949C188.822 338.449 186.903 337.341 186.403 335.474C185.903 333.607 187.011 331.688 188.878 331.187C190.745 330.687 192.664 331.795 193.164 333.662Z" fill="url(#paint148_linear)" fill-opacity="0.4"/>
<path d="M101.803 209.063C102.303 210.93 101.195 212.849 99.3276 213.35C97.4605 213.85 95.5413 212.742 95.041 210.875C94.5407 209.008 95.6488 207.088 97.5159 206.588C99.383 206.088 101.302 207.196 101.803 209.063Z" fill="url(#paint149_linear)" fill-opacity="0.4"/>
<path d="M163.919 440.885C164.419 442.752 163.311 444.671 161.444 445.172C159.577 445.672 157.658 444.564 157.157 442.697C156.657 440.83 157.765 438.911 159.632 438.41C161.499 437.91 163.418 439.018 163.919 440.885Z" fill="url(#paint150_linear)" fill-opacity="0.4"/>
<path d="M162.106 217.751C162.606 219.618 161.498 221.538 159.631 222.038C157.764 222.538 155.845 221.43 155.344 219.563C154.844 217.696 155.952 215.777 157.819 215.276C159.686 214.776 161.605 215.884 162.106 217.751Z" fill="url(#paint151_linear)" fill-opacity="0.4"/>
<defs>
<linearGradient id="paint0_linear" x1="67.5654" y1="79.1459" x2="176.065" y2="445.146" gradientUnits="userSpaceOnUse">
<stop stop-color="#112E51"/>
<stop offset="1" stop-color="white"/>
</linearGradient>
<linearGradient id="paint1_linear" x1="67.5654" y1="79.1459" x2="176.065" y2="445.146" gradientUnits="userSpaceOnUse">
<stop stop-color="#112E51"/>
<stop offset="1" stop-color="white"/>
</linearGradient>
<linearGradient id="paint2_linear" x1="67.5654" y1="79.1459" x2="176.065" y2="445.146" gradientUnits="userSpaceOnUse">
<stop stop-color="#112E51"/>
<stop offset="1" stop-color="white"/>
</linearGradient>
<linearGradient id="paint3_linear" x1="67.5654" y1="79.1459" x2="176.065" y2="445.146" gradientUnits="userSpaceOnUse">
<stop stop-color="#112E51"/>
<stop offset="1" stop-color="white"/>
</linearGradient>
<linearGradient id="paint4_linear" x1="67.5654" y1="79.1459" x2="176.065" y2="445.146" gradientUnits="userSpaceOnUse">
<stop stop-color="#112E51"/>
<stop offset="1" stop-color="white"/>
</linearGradient>
<linearGradient id="paint5_linear" x1="67.5654" y1="79.1459" x2="176.065" y2="445.146" gradientUnits="userSpaceOnUse">
<stop stop-color="#112E51"/>
<stop offset="1" stop-color="white"/>
</linearGradient>
<linearGradient id="paint6_linear" x1="67.5654" y1="79.1459" x2="176.065" y2="445.146" gradientUnits="userSpaceOnUse">
<stop stop-color="#112E51"/>
<stop offset="1" stop-color="white"/>
</linearGradient>
<linearGradient id="paint7_linear" x1="67.5654" y1="79.1459" x2="176.065" y2="445.146" gradientUnits="userSpaceOnUse">
<stop stop-color="#112E51"/>
<stop offset="1" stop-color="white"/>
</linearGradient>
<linearGradient id="paint8_linear" x1="67.5654" y1="79.1459" x2="176.065" y2="445.146" gradientUnits="userSpaceOnUse">
<stop stop-color="#112E51"/>
<stop offset="1" stop-color="white"/>
</linearGradient>
<linearGradient id="paint9_linear" x1="67.5654" y1="79.1459" x2="176.065" y2="445.146" gradientUnits="userSpaceOnUse">
<stop stop-color="#112E51"/>
<stop offset="1" stop-color="white"/>
</linearGradient>
<linearGradient id="paint10_linear" x1="67.5654" y1="79.1459" x2="176.065" y2="445.146" gradientUnits="userSpaceOnUse">
<stop stop-color="#112E51"/>
<stop offset="1" stop-color="white"/>
</linearGradient>
<linearGradient id="paint11_linear" x1="67.5654" y1="79.1459" x2="176.065" y2="445.146" gradientUnits="userSpaceOnUse">
<stop stop-color="#112E51"/>
<stop offset="1" stop-color="white"/>
</linearGradient>
<linearGradient id="paint12_linear" x1="67.5654" y1="79.1459" x2="176.065" y2="445.146" gradientUnits="userSpaceOnUse">
<stop stop-color="#112E51"/>
<stop offset="1" stop-color="white"/>
</linearGradient>
<linearGradient id="paint13_linear" x1="67.5654" y1="79.1459" x2="176.065" y2="445.146" gradientUnits="userSpaceOnUse">
<stop stop-color="#112E51"/>
<stop offset="1" stop-color="white"/>
</linearGradient>
<linearGradient id="paint14_linear" x1="67.5654" y1="79.1459" x2="176.065" y2="445.146" gradientUnits="userSpaceOnUse">
<stop stop-color="#112E51"/>
<stop offset="1" stop-color="white"/>
</linearGradient>
<linearGradient id="paint15_linear" x1="67.5654" y1="79.1459" x2="176.065" y2="445.146" gradientUnits="userSpaceOnUse">
<stop stop-color="#112E51"/>
<stop offset="1" stop-color="white"/>
</linearGradient>
<linearGradient id="paint16_linear" x1="67.5654" y1="79.1459" x2="176.065" y2="445.146" gradientUnits="userSpaceOnUse">
<stop stop-color="#112E51"/>
<stop offset="1" stop-color="white"/>
</linearGradient>
<linearGradient id="paint17_linear" x1="67.5654" y1="79.1459" x2="176.065" y2="445.146" gradientUnits="userSpaceOnUse">
<stop stop-color="#112E51"/>
<stop offset="1" stop-color="white"/>
</linearGradient>
<linearGradient id="paint18_linear" x1="67.5654" y1="79.1459" x2="176.065" y2="445.146" gradientUnits="userSpaceOnUse">
<stop stop-color="#112E51"/>
<stop offset="1" stop-color="white"/>
</linearGradient>
<linearGradient id="paint19_linear" x1="67.5654" y1="79.1459" x2="176.065" y2="445.146" gradientUnits="userSpaceOnUse">
<stop stop-color="#112E51"/>
<stop offset="1" stop-color="white"/>
</linearGradient>
<linearGradient id="paint20_linear" x1="67.5654" y1="79.1459" x2="176.065" y2="445.146" gradientUnits="userSpaceOnUse">
<stop stop-color="#112E51"/>
<stop offset="1" stop-color="white"/>
</linearGradient>
<linearGradient id="paint21_linear" x1="67.5654" y1="79.1459" x2="176.065" y2="445.146" gradientUnits="userSpaceOnUse">
<stop stop-color="#112E51"/>
<stop offset="1" stop-color="white"/>
</linearGradient>
<linearGradient id="paint22_linear" x1="67.5654" y1="79.1459" x2="176.065" y2="445.146" gradientUnits="userSpaceOnUse">
<stop stop-color="#112E51"/>
<stop offset="1" stop-color="white"/>
</linearGradient>
<linearGradient id="paint23_linear" x1="67.5654" y1="79.1459" x2="176.065" y2="445.146" gradientUnits="userSpaceOnUse">
<stop stop-color="#112E51"/>
<stop offset="1" stop-color="white"/>
</linearGradient>
<linearGradient id="paint24_linear" x1="67.5654" y1="79.1459" x2="176.065" y2="445.146" gradientUnits="userSpaceOnUse">
<stop stop-color="#112E51"/>
<stop offset="1" stop-color="white"/>
</linearGradient>
<linearGradient id="paint25_linear" x1="67.5654" y1="79.1459" x2="176.065" y2="445.146" gradientUnits="userSpaceOnUse">
<stop stop-color="#112E51"/>
<stop offset="1" stop-color="white"/>
</linearGradient>
<linearGradient id="paint26_linear" x1="67.5654" y1="79.1459" x2="176.065" y2="445.146" gradientUnits="userSpaceOnUse">
<stop stop-color="#112E51"/>
<stop offset="1" stop-color="white"/>
</linearGradient>
<linearGradient id="paint27_linear" x1="67.5654" y1="79.1459" x2="176.065" y2="445.146" gradientUnits="userSpaceOnUse">
<stop stop-color="#112E51"/>
<stop offset="1" stop-color="white"/>
</linearGradient>
<linearGradient id="paint28_linear" x1="67.5654" y1="79.1459" x2="176.065" y2="445.146" gradientUnits="userSpaceOnUse">
<stop stop-color="#112E51"/>
<stop offset="1" stop-color="white"/>
</linearGradient>
<linearGradient id="paint29_linear" x1="67.5654" y1="79.1459" x2="176.065" y2="445.146" gradientUnits="userSpaceOnUse">
<stop stop-color="#112E51"/>
<stop offset="1" stop-color="white"/>
</linearGradient>
<linearGradient id="paint30_linear" x1="67.5654" y1="79.1459" x2="176.065" y2="445.146" gradientUnits="userSpaceOnUse">
<stop stop-color="#112E51"/>
<stop offset="1" stop-color="white"/>
</linearGradient>
<linearGradient id="paint31_linear" x1="67.5654" y1="79.1459" x2="176.065" y2="445.146" gradientUnits="userSpaceOnUse">
<stop stop-color="#112E51"/>
<stop offset="1" stop-color="white"/>
</linearGradient>
<linearGradient id="paint32_linear" x1="67.5654" y1="79.1459" x2="176.065" y2="445.146" gradientUnits="userSpaceOnUse">
<stop stop-color="#112E51"/>
<stop offset="1" stop-color="white"/>
</linearGradient>
<linearGradient id="paint33_linear" x1="67.5654" y1="79.1459" x2="176.065" y2="445.146" gradientUnits="userSpaceOnUse">
<stop stop-color="#112E51"/>
<stop offset="1" stop-color="white"/>
</linearGradient>
<linearGradient id="paint34_linear" x1="67.5654" y1="79.1459" x2="176.065" y2="445.146" gradientUnits="userSpaceOnUse">
<stop stop-color="#112E51"/>
<stop offset="1" stop-color="white"/>
</linearGradient>
<linearGradient id="paint35_linear" x1="67.5654" y1="79.1459" x2="176.065" y2="445.146" gradientUnits="userSpaceOnUse">
<stop stop-color="#112E51"/>
<stop offset="1" stop-color="white"/>
</linearGradient>
<linearGradient id="paint36_linear" x1="67.5654" y1="79.1459" x2="176.065" y2="445.146" gradientUnits="userSpaceOnUse">
<stop stop-color="#112E51"/>
<stop offset="1" stop-color="white"/>
</linearGradient>
<linearGradient id="paint37_linear" x1="67.5654" y1="79.1459" x2="176.065" y2="445.146" gradientUnits="userSpaceOnUse">
<stop stop-color="#112E51"/>
<stop offset="1" stop-color="white"/>
</linearGradient>
<linearGradient id="paint38_linear" x1="67.5654" y1="79.1459" x2="176.065" y2="445.146" gradientUnits="userSpaceOnUse">
<stop stop-color="#112E51"/>
<stop offset="1" stop-color="white"/>
</linearGradient>
<linearGradient id="paint39_linear" x1="67.5654" y1="79.1459" x2="176.065" y2="445.146" gradientUnits="userSpaceOnUse">
<stop stop-color="#112E51"/>
<stop offset="1" stop-color="white"/>
</linearGradient>
<linearGradient id="paint40_linear" x1="67.5654" y1="79.1459" x2="176.065" y2="445.146" gradientUnits="userSpaceOnUse">
<stop stop-color="#112E51"/>
<stop offset="1" stop-color="white"/>
</linearGradient>
<linearGradient id="paint41_linear" x1="67.5654" y1="79.1459" x2="176.065" y2="445.146" gradientUnits="userSpaceOnUse">
<stop stop-color="#112E51"/>
<stop offset="1" stop-color="white"/>
</linearGradient>
<linearGradient id="paint42_linear" x1="67.5654" y1="79.1459" x2="176.065" y2="445.146" gradientUnits="userSpaceOnUse">
<stop stop-color="#112E51"/>
<stop offset="1" stop-color="white"/>
</linearGradient>
<linearGradient id="paint43_linear" x1="67.5654" y1="79.1459" x2="176.065" y2="445.146" gradientUnits="userSpaceOnUse">
<stop stop-color="#112E51"/>
<stop offset="1" stop-color="white"/>
</linearGradient>
<linearGradient id="paint44_linear" x1="67.5654" y1="79.1459" x2="176.065" y2="445.146" gradientUnits="userSpaceOnUse">
<stop stop-color="#112E51"/>
<stop offset="1" stop-color="white"/>
</linearGradient>
<linearGradient id="paint45_linear" x1="67.5654" y1="79.1459" x2="176.065" y2="445.146" gradientUnits="userSpaceOnUse">
<stop stop-color="#112E51"/>
<stop offset="1" stop-color="white"/>
</linearGradient>
<linearGradient id="paint46_linear" x1="67.5654" y1="79.1459" x2="176.065" y2="445.146" gradientUnits="userSpaceOnUse">
<stop stop-color="#112E51"/>
<stop offset="1" stop-color="white"/>
</linearGradient>
<linearGradient id="paint47_linear" x1="67.5654" y1="79.1459" x2="176.065" y2="445.146" gradientUnits="userSpaceOnUse">
<stop stop-color="#112E51"/>
<stop offset="1" stop-color="white"/>
</linearGradient>
<linearGradient id="paint48_linear" x1="67.5654" y1="79.1459" x2="176.065" y2="445.146" gradientUnits="userSpaceOnUse">
<stop stop-color="#112E51"/>
<stop offset="1" stop-color="white"/>
</linearGradient>
<linearGradient id="paint49_linear" x1="67.5654" y1="79.1459" x2="176.065" y2="445.146" gradientUnits="userSpaceOnUse">
<stop stop-color="#112E51"/>
<stop offset="1" stop-color="white"/>
</linearGradient>
<linearGradient id="paint50_linear" x1="67.5654" y1="79.1459" x2="176.065" y2="445.146" gradientUnits="userSpaceOnUse">
<stop stop-color="#112E51"/>
<stop offset="1" stop-color="white"/>
</linearGradient>
<linearGradient id="paint51_linear" x1="67.5654" y1="79.1459" x2="176.065" y2="445.146" gradientUnits="userSpaceOnUse">
<stop stop-color="#112E51"/>
<stop offset="1" stop-color="white"/>
</linearGradient>
<linearGradient id="paint52_linear" x1="67.5654" y1="79.1459" x2="176.065" y2="445.146" gradientUnits="userSpaceOnUse">
<stop stop-color="#112E51"/>
<stop offset="1" stop-color="white"/>
</linearGradient>
<linearGradient id="paint53_linear" x1="67.5654" y1="79.1459" x2="176.065" y2="445.146" gradientUnits="userSpaceOnUse">
<stop stop-color="#112E51"/>
<stop offset="1" stop-color="white"/>
</linearGradient>
<linearGradient id="paint54_linear" x1="67.5654" y1="79.1459" x2="176.065" y2="445.146" gradientUnits="userSpaceOnUse">
<stop stop-color="#112E51"/>
<stop offset="1" stop-color="white"/>
</linearGradient>
<linearGradient id="paint55_linear" x1="67.5654" y1="79.1459" x2="176.065" y2="445.146" gradientUnits="userSpaceOnUse">
<stop stop-color="#112E51"/>
<stop offset="1" stop-color="white"/>
</linearGradient>
<linearGradient id="paint56_linear" x1="67.5654" y1="79.1459" x2="176.065" y2="445.146" gradientUnits="userSpaceOnUse">
<stop stop-color="#112E51"/>
<stop offset="1" stop-color="white"/>
</linearGradient>
<linearGradient id="paint57_linear" x1="67.5654" y1="79.1459" x2="176.065" y2="445.146" gradientUnits="userSpaceOnUse">
<stop stop-color="#112E51"/>
<stop offset="1" stop-color="white"/>
</linearGradient>
<linearGradient id="paint58_linear" x1="67.5654" y1="79.1459" x2="176.065" y2="445.146" gradientUnits="userSpaceOnUse">
<stop stop-color="#112E51"/>
<stop offset="1" stop-color="white"/>
</linearGradient>
<linearGradient id="paint59_linear" x1="67.5654" y1="79.1459" x2="176.065" y2="445.146" gradientUnits="userSpaceOnUse">
<stop stop-color="#112E51"/>
<stop offset="1" stop-color="white"/>
</linearGradient>
<linearGradient id="paint60_linear" x1="67.5654" y1="79.1459" x2="176.065" y2="445.146" gradientUnits="userSpaceOnUse">
<stop stop-color="#112E51"/>
<stop offset="1" stop-color="white"/>
</linearGradient>
<linearGradient id="paint61_linear" x1="67.5654" y1="79.1459" x2="176.065" y2="445.146" gradientUnits="userSpaceOnUse">
<stop stop-color="#112E51"/>
<stop offset="1" stop-color="white"/>
</linearGradient>
<linearGradient id="paint62_linear" x1="67.5654" y1="79.1459" x2="176.065" y2="445.146" gradientUnits="userSpaceOnUse">
<stop stop-color="#112E51"/>
<stop offset="1" stop-color="white"/>
</linearGradient>
<linearGradient id="paint63_linear" x1="67.5654" y1="79.1459" x2="176.065" y2="445.146" gradientUnits="userSpaceOnUse">
<stop stop-color="#112E51"/>
<stop offset="1" stop-color="white"/>
</linearGradient>
<linearGradient id="paint64_linear" x1="67.5654" y1="79.1459" x2="176.065" y2="445.146" gradientUnits="userSpaceOnUse">
<stop stop-color="#112E51"/>
<stop offset="1" stop-color="white"/>
</linearGradient>
<linearGradient id="paint65_linear" x1="67.5654" y1="79.1459" x2="176.065" y2="445.146" gradientUnits="userSpaceOnUse">
<stop stop-color="#112E51"/>
<stop offset="1" stop-color="white"/>
</linearGradient>
<linearGradient id="paint66_linear" x1="67.5654" y1="79.1459" x2="176.065" y2="445.146" gradientUnits="userSpaceOnUse">
<stop stop-color="#112E51"/>
<stop offset="1" stop-color="white"/>
</linearGradient>
<linearGradient id="paint67_linear" x1="67.5654" y1="79.1459" x2="176.065" y2="445.146" gradientUnits="userSpaceOnUse">
<stop stop-color="#112E51"/>
<stop offset="1" stop-color="white"/>
</linearGradient>
<linearGradient id="paint68_linear" x1="67.5654" y1="79.1459" x2="176.065" y2="445.146" gradientUnits="userSpaceOnUse">
<stop stop-color="#112E51"/>
<stop offset="1" stop-color="white"/>
</linearGradient>
<linearGradient id="paint69_linear" x1="67.5654" y1="79.1459" x2="176.065" y2="445.146" gradientUnits="userSpaceOnUse">
<stop stop-color="#112E51"/>
<stop offset="1" stop-color="white"/>
</linearGradient>
<linearGradient id="paint70_linear" x1="67.5654" y1="79.1459" x2="176.065" y2="445.146" gradientUnits="userSpaceOnUse">
<stop stop-color="#112E51"/>
<stop offset="1" stop-color="white"/>
</linearGradient>
<linearGradient id="paint71_linear" x1="67.5654" y1="79.1459" x2="176.065" y2="445.146" gradientUnits="userSpaceOnUse">
<stop stop-color="#112E51"/>
<stop offset="1" stop-color="white"/>
</linearGradient>
<linearGradient id="paint72_linear" x1="67.5654" y1="79.1459" x2="176.065" y2="445.146" gradientUnits="userSpaceOnUse">
<stop stop-color="#112E51"/>
<stop offset="1" stop-color="white"/>
</linearGradient>
<linearGradient id="paint73_linear" x1="67.5654" y1="79.1459" x2="176.065" y2="445.146" gradientUnits="userSpaceOnUse">
<stop stop-color="#112E51"/>
<stop offset="1" stop-color="white"/>
</linearGradient>
<linearGradient id="paint74_linear" x1="67.5654" y1="79.1459" x2="176.065" y2="445.146" gradientUnits="userSpaceOnUse">
<stop stop-color="#112E51"/>
<stop offset="1" stop-color="white"/>
</linearGradient>
<linearGradient id="paint75_linear" x1="67.5654" y1="79.1459" x2="176.065" y2="445.146" gradientUnits="userSpaceOnUse">
<stop stop-color="#112E51"/>
<stop offset="1" stop-color="white"/>
</linearGradient>
<linearGradient id="paint76_linear" x1="67.5654" y1="79.1459" x2="176.065" y2="445.146" gradientUnits="userSpaceOnUse">
<stop stop-color="#112E51"/>
<stop offset="1" stop-color="white"/>
</linearGradient>
<linearGradient id="paint77_linear" x1="67.5654" y1="79.1459" x2="176.065" y2="445.146" gradientUnits="userSpaceOnUse">
<stop stop-color="#112E51"/>
<stop offset="1" stop-color="white"/>
</linearGradient>
<linearGradient id="paint78_linear" x1="67.5654" y1="79.1459" x2="176.065" y2="445.146" gradientUnits="userSpaceOnUse">
<stop stop-color="#112E51"/>
<stop offset="1" stop-color="white"/>
</linearGradient>
<linearGradient id="paint79_linear" x1="67.5654" y1="79.1459" x2="176.065" y2="445.146" gradientUnits="userSpaceOnUse">
<stop stop-color="#112E51"/>
<stop offset="1" stop-color="white"/>
</linearGradient>
<linearGradient id="paint80_linear" x1="67.5654" y1="79.1459" x2="176.065" y2="445.146" gradientUnits="userSpaceOnUse">
<stop stop-color="#112E51"/>
<stop offset="1" stop-color="white"/>
</linearGradient>
<linearGradient id="paint81_linear" x1="67.5654" y1="79.1459" x2="176.065" y2="445.146" gradientUnits="userSpaceOnUse">
<stop stop-color="#112E51"/>
<stop offset="1" stop-color="white"/>
</linearGradient>
<linearGradient id="paint82_linear" x1="67.5654" y1="79.1459" x2="176.065" y2="445.146" gradientUnits="userSpaceOnUse">
<stop stop-color="#112E51"/>
<stop offset="1" stop-color="white"/>
</linearGradient>
<linearGradient id="paint83_linear" x1="67.5654" y1="79.1459" x2="176.065" y2="445.146" gradientUnits="userSpaceOnUse">
<stop stop-color="#112E51"/>
<stop offset="1" stop-color="white"/>
</linearGradient>
<linearGradient id="paint84_linear" x1="67.5654" y1="79.1459" x2="176.065" y2="445.146" gradientUnits="userSpaceOnUse">
<stop stop-color="#112E51"/>
<stop offset="1" stop-color="white"/>
</linearGradient>
<linearGradient id="paint85_linear" x1="67.5654" y1="79.1459" x2="176.065" y2="445.146" gradientUnits="userSpaceOnUse">
<stop stop-color="#112E51"/>
<stop offset="1" stop-color="white"/>
</linearGradient>
<linearGradient id="paint86_linear" x1="67.5654" y1="79.1459" x2="176.065" y2="445.146" gradientUnits="userSpaceOnUse">
<stop stop-color="#112E51"/>
<stop offset="1" stop-color="white"/>
</linearGradient>
<linearGradient id="paint87_linear" x1="67.5654" y1="79.1459" x2="176.065" y2="445.146" gradientUnits="userSpaceOnUse">
<stop stop-color="#112E51"/>
<stop offset="1" stop-color="white"/>
</linearGradient>
<linearGradient id="paint88_linear" x1="67.5654" y1="79.1459" x2="176.065" y2="445.146" gradientUnits="userSpaceOnUse">
<stop stop-color="#112E51"/>
<stop offset="1" stop-color="white"/>
</linearGradient>
<linearGradient id="paint89_linear" x1="67.5654" y1="79.1459" x2="176.065" y2="445.146" gradientUnits="userSpaceOnUse">
<stop stop-color="#112E51"/>
<stop offset="1" stop-color="white"/>
</linearGradient>
<linearGradient id="paint90_linear" x1="67.5654" y1="79.1459" x2="176.065" y2="445.146" gradientUnits="userSpaceOnUse">
<stop stop-color="#112E51"/>
<stop offset="1" stop-color="white"/>
</linearGradient>
<linearGradient id="paint91_linear" x1="67.5654" y1="79.1459" x2="176.065" y2="445.146" gradientUnits="userSpaceOnUse">
<stop stop-color="#112E51"/>
<stop offset="1" stop-color="white"/>
</linearGradient>
<linearGradient id="paint92_linear" x1="67.5654" y1="79.1459" x2="176.065" y2="445.146" gradientUnits="userSpaceOnUse">
<stop stop-color="#112E51"/>
<stop offset="1" stop-color="white"/>
</linearGradient>
<linearGradient id="paint93_linear" x1="67.5654" y1="79.1459" x2="176.065" y2="445.146" gradientUnits="userSpaceOnUse">
<stop stop-color="#112E51"/>
<stop offset="1" stop-color="white"/>
</linearGradient>
<linearGradient id="paint94_linear" x1="67.5654" y1="79.1459" x2="176.065" y2="445.146" gradientUnits="userSpaceOnUse">
<stop stop-color="#112E51"/>
<stop offset="1" stop-color="white"/>
</linearGradient>
<linearGradient id="paint95_linear" x1="67.5654" y1="79.1459" x2="176.065" y2="445.146" gradientUnits="userSpaceOnUse">
<stop stop-color="#112E51"/>
<stop offset="1" stop-color="white"/>
</linearGradient>
<linearGradient id="paint96_linear" x1="67.5654" y1="79.1459" x2="176.065" y2="445.146" gradientUnits="userSpaceOnUse">
<stop stop-color="#112E51"/>
<stop offset="1" stop-color="white"/>
</linearGradient>
<linearGradient id="paint97_linear" x1="67.5654" y1="79.1459" x2="176.065" y2="445.146" gradientUnits="userSpaceOnUse">
<stop stop-color="#112E51"/>
<stop offset="1" stop-color="white"/>
</linearGradient>
<linearGradient id="paint98_linear" x1="67.5654" y1="79.1459" x2="176.065" y2="445.146" gradientUnits="userSpaceOnUse">
<stop stop-color="#112E51"/>
<stop offset="1" stop-color="white"/>
</linearGradient>
<linearGradient id="paint99_linear" x1="67.5654" y1="79.1459" x2="176.065" y2="445.146" gradientUnits="userSpaceOnUse">
<stop stop-color="#112E51"/>
<stop offset="1" stop-color="white"/>
</linearGradient>
<linearGradient id="paint100_linear" x1="67.5654" y1="79.1459" x2="176.065" y2="445.146" gradientUnits="userSpaceOnUse">
<stop stop-color="#112E51"/>
<stop offset="1" stop-color="white"/>
</linearGradient>
<linearGradient id="paint101_linear" x1="67.5654" y1="79.1459" x2="176.065" y2="445.146" gradientUnits="userSpaceOnUse">
<stop stop-color="#112E51"/>
<stop offset="1" stop-color="white"/>
</linearGradient>
<linearGradient id="paint102_linear" x1="67.5654" y1="79.1459" x2="176.065" y2="445.146" gradientUnits="userSpaceOnUse">
<stop stop-color="#112E51"/>
<stop offset="1" stop-color="white"/>
</linearGradient>
<linearGradient id="paint103_linear" x1="67.5654" y1="79.1459" x2="176.065" y2="445.146" gradientUnits="userSpaceOnUse">
<stop stop-color="#112E51"/>
<stop offset="1" stop-color="white"/>
</linearGradient>
<linearGradient id="paint104_linear" x1="67.5654" y1="79.1459" x2="176.065" y2="445.146" gradientUnits="userSpaceOnUse">
<stop stop-color="#112E51"/>
<stop offset="1" stop-color="white"/>
</linearGradient>
<linearGradient id="paint105_linear" x1="67.5654" y1="79.1459" x2="176.065" y2="445.146" gradientUnits="userSpaceOnUse">
<stop stop-color="#112E51"/>
<stop offset="1" stop-color="white"/>
</linearGradient>
<linearGradient id="paint106_linear" x1="67.5654" y1="79.1459" x2="176.065" y2="445.146" gradientUnits="userSpaceOnUse">
<stop stop-color="#112E51"/>
<stop offset="1" stop-color="white"/>
</linearGradient>
<linearGradient id="paint107_linear" x1="67.5654" y1="79.1459" x2="176.065" y2="445.146" gradientUnits="userSpaceOnUse">
<stop stop-color="#112E51"/>
<stop offset="1" stop-color="white"/>
</linearGradient>
<linearGradient id="paint108_linear" x1="67.5654" y1="79.1459" x2="176.065" y2="445.146" gradientUnits="userSpaceOnUse">
<stop stop-color="#112E51"/>
<stop offset="1" stop-color="white"/>
</linearGradient>
<linearGradient id="paint109_linear" x1="67.5654" y1="79.1459" x2="176.065" y2="445.146" gradientUnits="userSpaceOnUse">
<stop stop-color="#112E51"/>
<stop offset="1" stop-color="white"/>
</linearGradient>
<linearGradient id="paint110_linear" x1="67.5654" y1="79.1459" x2="176.065" y2="445.146" gradientUnits="userSpaceOnUse">
<stop stop-color="#112E51"/>
<stop offset="1" stop-color="white"/>
</linearGradient>
<linearGradient id="paint111_linear" x1="67.5654" y1="79.1459" x2="176.065" y2="445.146" gradientUnits="userSpaceOnUse">
<stop stop-color="#112E51"/>
<stop offset="1" stop-color="white"/>
</linearGradient>
<linearGradient id="paint112_linear" x1="67.5654" y1="79.1459" x2="176.065" y2="445.146" gradientUnits="userSpaceOnUse">
<stop stop-color="#112E51"/>
<stop offset="1" stop-color="white"/>
</linearGradient>
<linearGradient id="paint113_linear" x1="67.5654" y1="79.1459" x2="176.065" y2="445.146" gradientUnits="userSpaceOnUse">
<stop stop-color="#112E51"/>
<stop offset="1" stop-color="white"/>
</linearGradient>
<linearGradient id="paint114_linear" x1="67.5654" y1="79.1459" x2="176.065" y2="445.146" gradientUnits="userSpaceOnUse">
<stop stop-color="#112E51"/>
<stop offset="1" stop-color="white"/>
</linearGradient>
<linearGradient id="paint115_linear" x1="67.5654" y1="79.1459" x2="176.065" y2="445.146" gradientUnits="userSpaceOnUse">
<stop stop-color="#112E51"/>
<stop offset="1" stop-color="white"/>
</linearGradient>
<linearGradient id="paint116_linear" x1="67.5654" y1="79.1459" x2="176.065" y2="445.146" gradientUnits="userSpaceOnUse">
<stop stop-color="#112E51"/>
<stop offset="1" stop-color="white"/>
</linearGradient>
<linearGradient id="paint117_linear" x1="67.5654" y1="79.1459" x2="176.065" y2="445.146" gradientUnits="userSpaceOnUse">
<stop stop-color="#112E51"/>
<stop offset="1" stop-color="white"/>
</linearGradient>
<linearGradient id="paint118_linear" x1="67.5654" y1="79.1459" x2="176.065" y2="445.146" gradientUnits="userSpaceOnUse">
<stop stop-color="#112E51"/>
<stop offset="1" stop-color="white"/>
</linearGradient>
<linearGradient id="paint119_linear" x1="67.5654" y1="79.1459" x2="176.065" y2="445.146" gradientUnits="userSpaceOnUse">
<stop stop-color="#112E51"/>
<stop offset="1" stop-color="white"/>
</linearGradient>
<linearGradient id="paint120_linear" x1="67.5654" y1="79.1459" x2="176.065" y2="445.146" gradientUnits="userSpaceOnUse">
<stop stop-color="#112E51"/>
<stop offset="1" stop-color="white"/>
</linearGradient>
<linearGradient id="paint121_linear" x1="67.5654" y1="79.1459" x2="176.065" y2="445.146" gradientUnits="userSpaceOnUse">
<stop stop-color="#112E51"/>
<stop offset="1" stop-color="white"/>
</linearGradient>
<linearGradient id="paint122_linear" x1="67.5654" y1="79.1459" x2="176.065" y2="445.146" gradientUnits="userSpaceOnUse">
<stop stop-color="#112E51"/>
<stop offset="1" stop-color="white"/>
</linearGradient>
<linearGradient id="paint123_linear" x1="67.5654" y1="79.1459" x2="176.065" y2="445.146" gradientUnits="userSpaceOnUse">
<stop stop-color="#112E51"/>
<stop offset="1" stop-color="white"/>
</linearGradient>
<linearGradient id="paint124_linear" x1="67.5654" y1="79.1459" x2="176.065" y2="445.146" gradientUnits="userSpaceOnUse">
<stop stop-color="#112E51"/>
<stop offset="1" stop-color="white"/>
</linearGradient>
<linearGradient id="paint125_linear" x1="67.5654" y1="79.1459" x2="176.065" y2="445.146" gradientUnits="userSpaceOnUse">
<stop stop-color="#112E51"/>
<stop offset="1" stop-color="white"/>
</linearGradient>
<linearGradient id="paint126_linear" x1="67.5654" y1="79.1459" x2="176.065" y2="445.146" gradientUnits="userSpaceOnUse">
<stop stop-color="#112E51"/>
<stop offset="1" stop-color="white"/>
</linearGradient>
<linearGradient id="paint127_linear" x1="67.5654" y1="79.1459" x2="176.065" y2="445.146" gradientUnits="userSpaceOnUse">
<stop stop-color="#112E51"/>
<stop offset="1" stop-color="white"/>
</linearGradient>
<linearGradient id="paint128_linear" x1="67.5654" y1="79.1459" x2="176.065" y2="445.146" gradientUnits="userSpaceOnUse">
<stop stop-color="#112E51"/>
<stop offset="1" stop-color="white"/>
</linearGradient>
<linearGradient id="paint129_linear" x1="67.5654" y1="79.1459" x2="176.065" y2="445.146" gradientUnits="userSpaceOnUse">
<stop stop-color="#112E51"/>
<stop offset="1" stop-color="white"/>
</linearGradient>
<linearGradient id="paint130_linear" x1="67.5654" y1="79.1459" x2="176.065" y2="445.146" gradientUnits="userSpaceOnUse">
<stop stop-color="#112E51"/>
<stop offset="1" stop-color="white"/>
</linearGradient>
<linearGradient id="paint131_linear" x1="67.5654" y1="79.1459" x2="176.065" y2="445.146" gradientUnits="userSpaceOnUse">
<stop stop-color="#112E51"/>
<stop offset="1" stop-color="white"/>
</linearGradient>
<linearGradient id="paint132_linear" x1="67.5654" y1="79.1459" x2="176.065" y2="445.146" gradientUnits="userSpaceOnUse">
<stop stop-color="#112E51"/>
<stop offset="1" stop-color="white"/>
</linearGradient>
<linearGradient id="paint133_linear" x1="67.5654" y1="79.1459" x2="176.065" y2="445.146" gradientUnits="userSpaceOnUse">
<stop stop-color="#112E51"/>
<stop offset="1" stop-color="white"/>
</linearGradient>
<linearGradient id="paint134_linear" x1="67.5654" y1="79.1459" x2="176.065" y2="445.146" gradientUnits="userSpaceOnUse">
<stop stop-color="#112E51"/>
<stop offset="1" stop-color="white"/>
</linearGradient>
<linearGradient id="paint135_linear" x1="67.5654" y1="79.1459" x2="176.065" y2="445.146" gradientUnits="userSpaceOnUse">
<stop stop-color="#112E51"/>
<stop offset="1" stop-color="white"/>
</linearGradient>
<linearGradient id="paint136_linear" x1="67.5654" y1="79.1459" x2="176.065" y2="445.146" gradientUnits="userSpaceOnUse">
<stop stop-color="#112E51"/>
<stop offset="1" stop-color="white"/>
</linearGradient>
<linearGradient id="paint137_linear" x1="67.5654" y1="79.1459" x2="176.065" y2="445.146" gradientUnits="userSpaceOnUse">
<stop stop-color="#112E51"/>
<stop offset="1" stop-color="white"/>
</linearGradient>
<linearGradient id="paint138_linear" x1="67.5654" y1="79.1459" x2="176.065" y2="445.146" gradientUnits="userSpaceOnUse">
<stop stop-color="#112E51"/>
<stop offset="1" stop-color="white"/>
</linearGradient>
<linearGradient id="paint139_linear" x1="67.5654" y1="79.1459" x2="176.065" y2="445.146" gradientUnits="userSpaceOnUse">
<stop stop-color="#112E51"/>
<stop offset="1" stop-color="white"/>
</linearGradient>
<linearGradient id="paint140_linear" x1="67.5654" y1="79.1459" x2="176.065" y2="445.146" gradientUnits="userSpaceOnUse">
<stop stop-color="#112E51"/>
<stop offset="1" stop-color="white"/>
</linearGradient>
<linearGradient id="paint141_linear" x1="67.5654" y1="79.1459" x2="176.065" y2="445.146" gradientUnits="userSpaceOnUse">
<stop stop-color="#112E51"/>
<stop offset="1" stop-color="white"/>
</linearGradient>
<linearGradient id="paint142_linear" x1="67.5654" y1="79.1459" x2="176.065" y2="445.146" gradientUnits="userSpaceOnUse">
<stop stop-color="#112E51"/>
<stop offset="1" stop-color="white"/>
</linearGradient>
<linearGradient id="paint143_linear" x1="67.5654" y1="79.1459" x2="176.065" y2="445.146" gradientUnits="userSpaceOnUse">
<stop stop-color="#112E51"/>
<stop offset="1" stop-color="white"/>
</linearGradient>
<linearGradient id="paint144_linear" x1="67.5654" y1="79.1459" x2="176.065" y2="445.146" gradientUnits="userSpaceOnUse">
<stop stop-color="#112E51"/>
<stop offset="1" stop-color="white"/>
</linearGradient>
<linearGradient id="paint145_linear" x1="67.5654" y1="79.1459" x2="176.065" y2="445.146" gradientUnits="userSpaceOnUse">
<stop stop-color="#112E51"/>
<stop offset="1" stop-color="white"/>
</linearGradient>
<linearGradient id="paint146_linear" x1="67.5654" y1="79.1459" x2="176.065" y2="445.146" gradientUnits="userSpaceOnUse">
<stop stop-color="#112E51"/>
<stop offset="1" stop-color="white"/>
</linearGradient>
<linearGradient id="paint147_linear" x1="67.5654" y1="79.1459" x2="176.065" y2="445.146" gradientUnits="userSpaceOnUse">
<stop stop-color="#112E51"/>
<stop offset="1" stop-color="white"/>
</linearGradient>
<linearGradient id="paint148_linear" x1="67.5654" y1="79.1459" x2="176.065" y2="445.146" gradientUnits="userSpaceOnUse">
<stop stop-color="#112E51"/>
<stop offset="1" stop-color="white"/>
</linearGradient>
<linearGradient id="paint149_linear" x1="67.5654" y1="79.1459" x2="176.065" y2="445.146" gradientUnits="userSpaceOnUse">
<stop stop-color="#112E51"/>
<stop offset="1" stop-color="white"/>
</linearGradient>
<linearGradient id="paint150_linear" x1="67.5654" y1="79.1459" x2="176.065" y2="445.146" gradientUnits="userSpaceOnUse">
<stop stop-color="#112E51"/>
<stop offset="1" stop-color="white"/>
</linearGradient>
<linearGradient id="paint151_linear" x1="67.5654" y1="79.1459" x2="176.065" y2="445.146" gradientUnits="userSpaceOnUse">
<stop stop-color="#112E51"/>
<stop offset="1" stop-color="white"/>
</linearGradient>
</defs>
</svg>
