<svg width="464" height="161" viewBox="0 0 464 161" fill="none" xmlns="http://www.w3.org/2000/svg">
<path d="M256.689 31.0471C256.689 40.8263 254.247 48.4732 249.364 53.9878C244.481 59.4656 237.742 62.2045 229.149 62.2045C223.736 62.2045 218.966 60.9362 214.84 58.3995C210.714 55.8628 207.553 52.2231 205.358 47.4806C203.162 42.738 202.064 37.2602 202.064 31.0471C202.064 21.2679 204.506 13.6578 209.389 8.21673C214.272 2.73891 220.973 0 229.49 0C237.97 0 244.613 2.77568 249.421 8.32703C254.266 13.8416 256.689 21.415 256.689 31.0471ZM207.97 31.0471C207.97 39.2822 209.825 45.7159 213.534 50.3482C217.282 54.9437 222.563 57.2414 229.376 57.2414C236.19 57.2414 241.452 54.9437 245.162 50.3482C248.91 45.7159 250.783 39.2822 250.783 31.0471C250.783 22.7752 248.891 16.3599 245.105 11.8012C241.358 7.24249 236.077 4.96313 229.263 4.96313C222.449 4.96313 217.187 7.24249 213.478 11.8012C209.806 16.3232 207.97 22.7385 207.97 31.0471Z" fill="white"/>
<path d="M316.821 61.1016V22.2238C316.821 16.1945 315.515 11.8196 312.903 9.09907C310.291 6.34177 306.24 4.96313 300.752 4.96313C293.37 4.96313 287.957 6.78294 284.512 10.4226C281.105 14.0254 279.401 19.8893 279.401 28.0141V61.1016H273.78V1.15806H278.55L279.629 9.3748H279.969C283.982 3.12493 291.117 0 301.376 0C315.382 0 322.385 7.29764 322.385 21.8929V61.1016H316.821Z" fill="white"/>
<path d="M367.3 62.2045C358.328 62.2045 351.325 59.5208 346.291 54.1532C341.294 48.7857 338.795 41.2675 338.795 31.5986C338.795 22.04 341.218 14.3931 346.064 8.6579C350.909 2.88597 357.439 0 365.653 0C372.921 0 378.656 2.46318 382.858 7.38955C387.06 12.3159 389.161 19.0069 389.161 27.4626V31.8743H344.701C344.777 40.1094 346.745 46.3961 350.606 50.7342C354.505 55.0723 360.07 57.2414 367.3 57.2414C370.821 57.2414 373.906 57.0024 376.556 56.5245C379.243 56.0466 382.631 55.0172 386.72 53.4363V58.3995C383.237 59.87 380.019 60.8627 377.067 61.3773C374.114 61.9288 370.858 62.2045 367.3 62.2045ZM365.653 4.85284C359.71 4.85284 354.941 6.76456 351.344 10.588C347.748 14.3747 345.647 19.8525 345.042 27.0215H383.199C383.199 20.0731 381.647 14.6504 378.543 10.7534C375.439 6.81971 371.142 4.85284 365.653 4.85284Z" fill="white"/>
<path d="M241.748 161L224.877 100.918H224.369C225.159 110.96 225.554 118.761 225.554 124.324V161H205.806V78.0165H235.485L252.694 136.138H253.145L270.016 78.0165H299.751V161H279.269V123.988C279.269 122.121 279.288 120.049 279.326 117.772C279.401 115.495 279.664 109.914 280.116 101.03H279.608L262.963 161H241.748Z" fill="white"/>
<path d="M368.351 161L364.074 144.537H337.273L333.312 161H308.824L335.524 77.6805H365.259L392.726 161H368.351ZM359.447 126.395L355.893 112.957C355.065 109.97 354.049 106.107 352.846 101.366C351.68 96.6251 350.908 93.2282 350.532 91.1751C350.194 93.0789 349.517 96.2145 348.501 100.582C347.523 104.95 345.323 113.554 341.899 126.395H359.447Z" fill="white"/>
<path d="M438.214 94.9827C432.91 94.9827 428.773 97.1478 425.801 101.478C422.83 105.771 421.344 111.706 421.344 119.284C421.344 135.037 427.381 142.914 439.456 142.914C443.104 142.914 446.64 142.41 450.063 141.402C453.486 140.394 456.928 139.181 460.389 137.762V156.464C453.505 159.488 445.719 161 437.029 161C424.579 161 415.024 157.416 408.366 150.249C401.746 143.082 398.436 132.723 398.436 119.172C398.436 110.698 400.034 103.251 403.232 96.8305C406.467 90.4098 411.093 85.4823 417.112 82.048C423.168 78.5764 430.277 76.8406 438.44 76.8406C447.355 76.8406 455.875 78.763 464 82.608L457.173 100.022C454.126 98.6036 451.079 97.4091 448.032 96.4385C444.985 95.4679 441.713 94.9827 438.214 94.9827Z" fill="white"/>
<path fill-rule="evenodd" clip-rule="evenodd" d="M0 0H173.792V161H0V0ZM65.1234 104.65H158.737V20.125H20.3514V36.225V104.65V144.9H65.1234V104.65Z" fill="white"/>
</svg>
