<svg width="609" height="549" viewBox="0 0 609 549" fill="none" xmlns="http://www.w3.org/2000/svg">
<path d="M214.067 223.655L303 172.309L391.933 223.655V326.345L303 377.691L214.067 326.345V223.655Z" stroke="white" stroke-opacity="0.1" stroke-width="4"/>
<path d="M16.0673 225.655L105 174.309L193.933 225.655V328.345L105 379.691L16.0673 328.345V225.655Z" stroke="white" stroke-opacity="0.1" stroke-width="4"/>
<path d="M116.067 55.6547L205 4.3094L293.933 55.6547V158.345L205 209.691L116.067 158.345V55.6547Z" stroke="white" stroke-opacity="0.1" stroke-width="4"/>
<path d="M319.067 53.6547L408 2.3094L496.933 53.6547V156.345L408 207.691L319.067 156.345V53.6547Z" stroke="white" stroke-opacity="0.1" stroke-width="4"/>
<path d="M415.067 225.655L504 174.309L592.933 225.655V328.345L504 379.691L415.067 328.345V225.655Z" stroke="white" stroke-opacity="0.1" stroke-width="4"/>
<path d="M313.067 392.655L402 341.309L490.933 392.655V495.345L402 546.691L313.067 495.345V392.655Z" stroke="white" stroke-opacity="0.1" stroke-width="4"/>
</svg>
