<svg width="117" height="42" viewBox="0 0 117 42" fill="none" xmlns="http://www.w3.org/2000/svg">
<path d="M64.7506 7.86104C64.7506 10.3371 64.1178 12.2733 62.8523 13.6695C61.5868 15.0565 59.8406 15.75 57.6137 15.75C56.2109 15.75 54.9748 15.4289 53.9055 14.7866C52.8362 14.1443 52.0171 13.2227 51.4481 12.0219C50.8791 10.8211 50.5946 9.43418 50.5946 7.86104C50.5946 5.38497 51.2274 3.45811 52.4929 2.08045C53.7584 0.693484 55.4948 0 57.702 0C59.8995 0 61.6212 0.702792 62.8671 2.10838C64.1227 3.50465 64.7506 5.42221 64.7506 7.86104ZM52.125 7.86104C52.125 9.94614 52.6057 11.5751 53.5671 12.748C54.5383 13.9116 55.9068 14.4934 57.6726 14.4934C59.4384 14.4934 60.802 13.9116 61.7634 12.748C62.7346 11.5751 63.2202 9.94614 63.2202 7.86104C63.2202 5.76662 62.7297 4.14229 61.7487 2.98803C60.7775 1.83378 59.409 1.25665 57.6432 1.25665C55.8773 1.25665 54.5137 1.83378 53.5524 2.98803C52.6008 4.13298 52.125 5.75731 52.125 7.86104Z" fill="white"/>
<path d="M80.334 15.4707V5.62699C80.334 4.1004 79.9955 2.99269 79.3186 2.30386C78.6417 1.60572 77.592 1.25665 76.1696 1.25665C74.2566 1.25665 72.8537 1.71742 71.961 2.63896C71.0781 3.5512 70.6367 5.0359 70.6367 7.09308V15.4707H69.1799V0.293218H70.4159L70.6955 2.37367H70.7838C71.8237 0.791223 73.6729 0 76.3314 0C79.9612 0 81.776 1.84774 81.776 5.54322V15.4707H80.334Z" fill="white"/>
<path d="M93.4157 15.75C91.0907 15.75 89.2759 15.0705 87.9711 13.7114C86.6762 12.3524 86.0287 10.4488 86.0287 8.00066C86.0287 5.58045 86.6566 3.64428 87.9123 2.19215C89.168 0.730718 90.8602 0 92.989 0C94.8725 0 96.3588 0.62367 97.4477 1.87101C98.5366 3.11835 99.0811 4.8125 99.0811 6.95346V8.07048H87.5591C87.5787 10.1556 88.0888 11.7473 89.0895 12.8457C90.0999 13.9441 91.542 14.4934 93.4157 14.4934C94.3281 14.4934 95.1276 14.4328 95.8143 14.3118C96.5108 14.1908 97.3888 13.9302 98.4483 13.5299V14.7866C97.5458 15.1589 96.7119 15.4102 95.9467 15.5406C95.1816 15.6802 94.3379 15.75 93.4157 15.75ZM92.989 1.22872C91.4488 1.22872 90.2127 1.71277 89.2808 2.68085C88.3488 3.63963 87.8043 5.0266 87.6474 6.84175H97.536C97.536 5.08245 97.1338 3.70944 96.3293 2.72274C95.5249 1.72673 94.4115 1.22872 92.989 1.22872Z" fill="white"/>
<path d="M59.8385 42L55.4995 26.2584H55.3689C55.5721 28.8893 55.6737 30.9334 55.6737 32.3907V42H50.5946V20.2581H58.2277L62.6538 35.4862H62.7699L67.1089 20.2581H74.7565V42H69.4888V32.3026C69.4888 31.8136 69.4936 31.2708 69.5033 30.6742C69.5227 30.0776 69.5904 28.6154 69.7065 26.2877H69.5759L65.2949 42H59.8385Z" fill="white"/>
<path d="M92.3998 42L91.2998 37.6867H84.4068L83.3881 42H77.09L83.9569 20.1701H91.6046L98.6689 42H92.3998ZM90.1099 32.9335L89.1956 29.4125C88.9828 28.6301 88.7216 27.6178 88.412 26.3757C88.1121 25.1336 87.9138 24.2436 87.817 23.7057C87.73 24.2045 87.5558 25.026 87.2946 26.1703C87.0431 27.3146 86.4771 29.569 85.5967 32.9335H90.1099Z" fill="white"/>
<path d="M110.368 24.7033C109.004 24.7033 107.94 25.2705 107.176 26.4051C106.411 27.5298 106.029 29.0849 106.029 31.0703C106.029 35.1976 107.582 37.2613 110.687 37.2613C111.626 37.2613 112.535 37.1293 113.416 36.8652C114.296 36.6011 115.181 36.2833 116.071 35.9116V40.8116C114.301 41.6038 112.298 41.9999 110.063 41.9999C106.861 41.9999 104.404 41.061 102.691 39.1831C100.989 37.3053 100.137 34.5912 100.137 31.041C100.137 28.8208 100.549 26.8696 101.371 25.1874C102.203 23.5052 103.393 22.2142 104.941 21.3144C106.498 20.4048 108.327 19.95 110.426 19.95C112.719 19.95 114.91 20.4537 117 21.4611L115.244 26.0236C114.46 25.652 113.677 25.339 112.893 25.0847C112.11 24.8304 111.268 24.7033 110.368 24.7033Z" fill="white"/>
<path fill-rule="evenodd" clip-rule="evenodd" d="M0 0H42.1622V42H0V0ZM4.21641 37.8V29.4V4.2H12.6488H37.9461V29.4H12.6488V37.8H4.21641Z" fill="white"/>
</svg>
