<svg width="165" height="120" viewBox="0 0 165 120" fill="none" xmlns="http://www.w3.org/2000/svg">
<path d="M105 0C97.0435 0 89.4129 3.1607 83.7868 8.7868C78.1607 14.4129 75 22.0435 75 30C75 37.9565 78.1607 45.5871 83.7868 51.2132C89.4129 56.8393 97.0435 60 105 60C112.956 60 120.587 56.8393 126.213 51.2132C131.839 45.5871 135 37.9565 135 30C135 22.0435 131.839 14.4129 126.213 8.7868C120.587 3.1607 112.956 0 105 0ZM105 14.25C113.7 14.25 120.75 21.3 120.75 30C120.75 38.7 113.7 45.75 105 45.75C100.823 45.75 96.8168 44.0906 93.8631 41.1369C90.9094 38.1832 89.25 34.1772 89.25 30C89.25 25.8228 90.9094 21.8168 93.8631 18.8631C96.8168 15.9094 100.823 14.25 105 14.25ZM22.5 22.5V45H0V60H22.5V82.5H37.5V60H60V45H37.5V22.5H22.5ZM105 67.5C84.975 67.5 45 77.475 45 97.5V120H165V97.5C165 77.475 125.025 67.5 105 67.5ZM105 81.75C127.275 81.75 150.75 92.7 150.75 97.5V105.75H59.25V97.5C59.25 92.7 82.5 81.75 105 81.75Z" fill="white" fill-opacity="0.2"/>
</svg>
