<svg width="115" height="173" viewBox="0 0 115 173" fill="none" xmlns="http://www.w3.org/2000/svg">
<path d="M63 25.95H89L76 43.25L63 25.95ZM-23.6667 0H97.6667C107.287 0 115 7.785 115 17.3V155.7C115 165.301 107.287 173 97.6667 173H-23.6667C-33.2 173 -41 165.301 -41 155.7V17.3C-41 7.785 -33.2 0 -23.6667 0ZM-23.6667 17.3V51.9H97.6667V17.3H-23.6667ZM-23.6667 155.7H97.6667V69.2H-23.6667V155.7ZM-6.33333 86.5H80.3333V103.8H-6.33333V86.5ZM-6.33333 121.1H80.3333V138.4H-6.33333V121.1Z" fill="white" fill-opacity="0.2"/>
</svg>
