<svg width="117" height="136" viewBox="0 0 117 136" fill="none" xmlns="http://www.w3.org/2000/svg">
<path d="M-26.8571 30.2222V120.889H86.7143V136H-26.8571C-42 136 -42 120.889 -42 120.889V30.2222H-26.8571ZM104.129 0H1.15714C-5.96 0 -11.7143 5.28889 -11.7143 11.7111V94.0667C-11.7143 100.564 -5.96 105.778 1.15714 105.778H104.129C111.246 105.778 117 100.564 117 94.0667V11.7111C117 5.28889 111.246 0 104.129 0ZM3.42857 15.1111H41.2857V60.4444H3.42857V15.1111ZM101.857 90.6667H3.42857V75.5556H101.857V90.6667ZM101.857 60.4444H56.4286V45.3333H101.857V60.4444ZM101.857 30.2222H56.4286V15.1111H101.857V30.2222Z" fill="white" fill-opacity="0.2"/>
</svg>
